<?xml version="1.0" encoding="utf-8"?>
<!-- Generator: Adobe Illustrator 16.0.0, SVG Export Plug-In . SVG Version: 6.00 Build 0)  -->
<!DOCTYPE svg PUBLIC "-//W3C//DTD SVG 1.1//EN" "http://www.w3.org/Graphics/SVG/1.1/DTD/svg11.dtd">
<svg version="1.1" xmlns="http://www.w3.org/2000/svg" xmlns:xlink="http://www.w3.org/1999/xlink" x="0px" y="0px" width="100px"
	 height="100px" viewBox="0 0 100 100" enable-background="new 0 0 100 100" xml:space="preserve">
<g id="Layer_1">
	<g>
		<path fill-rule="evenodd" clip-rule="evenodd" fill="#010101" d="M51.047,68.713c0,6.307,0.019,12.615-0.007,18.923
			c-0.015,3.683-2.464,6.386-5.89,6.933c-3.573,0.569-6.612-1.067-8.005-4.572c-0.275-0.692-0.38-1.394-0.378-2.124
			c0.003-1.174-0.006-2.349,0.003-3.522c0.006-0.842,0.594-1.416,1.423-1.418c0.798-0.002,1.4,0.54,1.422,1.355
			c0.03,1.08,0.019,2.164,0.005,3.245c-0.021,1.703,1.316,3.437,2.86,3.988c1.938,0.692,3.77-0.136,4.788-1.434
			c0.563-0.72,0.84-1.539,0.839-2.479c-0.011-12.748-0.011-25.498,0.006-38.247c0.001-0.522-0.119-0.665-0.63-0.616
			c-2.275,0.218-4.538,0.461-6.772,1.007c-2.836,0.693-5.558,1.65-8.155,2.982c-0.495,0.254-1.043,0.229-1.506-0.117
			c-1.285-0.957-2.666-1.764-4.134-2.385c-1.509-0.637-3.084-1.101-4.724-1.311c-1.066-0.137-2.126-0.328-3.209-0.265
			c-2.688,0.156-5.29,0.647-7.77,1.763c-1.386,0.624-2.675,1.377-3.896,2.27c-0.545,0.398-1.459,0.323-1.835-0.121
			c-0.484-0.572-0.608-1.379,0.062-1.946c0.647-0.549,1.2-1.208,1.819-1.791c0.238-0.224,0.187-0.334-0.018-0.532
			c-0.231-0.222-0.353-0.122-0.46,0.09c-0.151,0.298-0.485,0.399-0.675,0.673c-0.149,0.215-0.413,0.539-0.73,0.36
			c-0.261-0.147-0.147-0.512-0.101-0.759c0.184-0.988,0.41-1.968,0.619-2.952c0.8-3.755,2.194-7.29,3.972-10.68
			c1.531-2.919,3.385-5.612,5.539-8.111c2.923-3.392,6.252-6.308,10.043-8.683c2.619-1.641,5.372-3.008,8.278-4.096
			c2.213-0.829,4.481-1.434,6.771-1.936c1.798-0.394,3.655-0.522,5.488-0.75c0.521-0.065,1.051-0.101,1.575-0.087
			c0.391,0.011,0.447-0.147,0.442-0.484c-0.016-1.312-0.016-2.625-0.003-3.937c0.008-0.845,0.482-1.451,1.204-1.592
			c0.989-0.194,1.716,0.375,1.734,1.403c0.022,1.312,0.025,2.625-0.005,3.937c-0.013,0.505,0.133,0.664,0.656,0.677
			c1.528,0.04,3.038,0.334,4.555,0.476c1.808,0.168,3.542,0.633,5.284,1.052c1.861,0.447,3.662,1.125,5.437,1.859
			c4.697,1.943,8.956,4.597,12.718,8.003c3.406,3.084,6.32,6.588,8.643,10.577c1.889,3.244,3.383,6.657,4.423,10.252
			c0.738,2.553,1.216,5.174,1.478,7.827c0.059,0.599-0.185,1.149-0.692,1.392c-0.559,0.266-1.221,0.27-1.771-0.139
			c-2.438-1.805-5.105-3.056-8.113-3.595c-1.834-0.329-3.656-0.549-5.513-0.323c-3.213,0.392-6.234,1.324-8.922,3.19
			c-0.356,0.247-0.719,0.49-1.087,0.72c-0.416,0.26-0.893,0.318-1.316,0.11c-1.42-0.698-2.856-1.366-4.355-1.864
			c-2.47-0.82-4.956-1.577-7.574-1.823c-1.044-0.099-2.09-0.215-3.134-0.341c-0.568-0.069-0.722,0.116-0.72,0.697
			C51.056,55.867,51.047,62.289,51.047,68.713z"/>
		<path fill-rule="evenodd" clip-rule="evenodd" fill="#82BEE8" d="M66.688,49.395c-11.402-4.835-22.714-4.827-34.061-0.044
			c0.033-1.523,0.198-3.044,0.36-4.574c0.217-2.043,0.475-4.077,0.894-6.084c0.635-3.049,1.292-6.089,2.304-9.053
			c0.776-2.273,1.599-4.521,2.692-6.649c1.598-3.109,3.473-6.029,6.439-8.063c0.73-0.5,1.548-0.647,2.405-0.685
			c1.562-0.068,3.13-0.131,4.678,0.076c1.436,0.192,2.447,1.217,3.424,2.168c2.059,2.006,3.551,4.433,4.795,6.997
			c1.077,2.218,1.955,4.521,2.682,6.889c0.852,2.774,1.477,5.589,2.066,8.428c0.646,3.114,0.83,6.278,1.314,9.407
			C66.739,48.586,66.688,48.982,66.688,49.395z"/>
		<path fill-rule="evenodd" clip-rule="evenodd" fill="#C9E5F7" d="M56.26,14.763c17.952,2.743,31.913,17.296,34.526,33.753
			c-1.445-0.82-2.932-1.415-4.481-1.85c-1.804-0.507-3.63-0.875-5.518-0.849c-1.396,0.021-2.8-0.097-4.18,0.177
			c-1.225,0.243-2.46,0.439-3.647,0.854c-1.488,0.52-2.943,1.1-4.293,1.921c-0.49,0.297-0.581,0.113-0.59-0.398
			c-0.035-1.9-0.33-3.776-0.559-5.66c-0.207-1.697-0.459-3.385-0.786-5.059c-0.426-2.172-0.944-4.324-1.556-6.455
			c-0.535-1.868-1.125-3.722-1.867-5.509c-1.113-2.675-2.389-5.276-4.131-7.627C58.318,16.901,57.382,15.824,56.26,14.763z"/>
		<path fill-rule="evenodd" clip-rule="evenodd" fill="#C9E5F7" d="M8.856,46.401C8.917,45.42,9.284,44.51,9.57,43.59
			c0.808-2.594,1.863-5.095,3.17-7.477c1.77-3.225,3.918-6.173,6.451-8.857c2.625-2.782,5.593-5.121,8.855-7.076
			c2.943-1.765,6.069-3.141,9.376-4.129c1.8-0.538,3.636-0.86,5.492-1.273c-0.473,0.461-0.883,0.953-1.321,1.414
			c-2.071,2.18-3.501,4.766-4.77,7.451c-1.229,2.604-2.171,5.323-2.95,8.088c-0.563,1.993-0.938,4.038-1.388,6.062
			c-0.499,2.239-0.744,4.519-1.04,6.789c-0.188,1.445-0.263,2.905-0.393,4.416c-6.759-3.786-13.688-4.28-20.832-1.37
			c-0.325-0.284-0.464-0.7-0.734-1.028C9.291,46.362,9.101,46.356,8.856,46.401z"/>
		<path fill-rule="evenodd" clip-rule="evenodd" fill="#FBFCFC" d="M8.856,46.401c0.142-0.319,0.318-0.543,0.59-0.117
			c0.278,0.436,0.731,0.773,0.773,1.345c-0.47,0.326-1.047,0.451-1.501,0.816c-0.181,0.145-0.447,0.248-0.421-0.184
			c0.015-0.243-0.285-0.214-0.333-0.428c0.514,0.083,0.643-0.274,0.683-0.659C8.677,46.9,8.67,46.629,8.856,46.401z"/>
	</g>
</g>
<g id="Layer_2" display="none">
	<g display="inline">
		<path fill-rule="evenodd" clip-rule="evenodd" fill="#FBB35A" d="M49.046,75.268c-0.947,0-1.937,0.174-2.828-0.048
			c-0.894-0.224-1.808-0.256-2.687-0.49c-1.498-0.402-2.931-0.987-4.385-1.516c-1.336-0.485-2.522-1.185-3.691-1.907
			c-0.583-0.361-1.314-0.632-1.684-1.401c-0.193-0.399-0.905-0.456-1.313-0.82c-2.048-1.827-3.829-3.874-5.225-6.246
			c-0.554-0.94-0.988-1.938-1.464-2.911c-0.633-1.295-1.059-2.638-1.393-4.004c-0.752-3.084-1.036-6.203-0.54-9.379
			c0.156-1,0.231-2.016,0.49-2.996c0.444-1.683,0.92-3.35,1.781-4.892c0.378-0.677,0.608-1.438,1.053-2.092
			c0.54-0.793,0.958-1.694,1.604-2.385c1.155-1.233,2.045-2.72,3.39-3.755c0.677-0.523,1.297-1.135,2.088-1.53
			c0.604-0.302,0.994-0.938,1.642-1.214c1.436-0.613,2.712-1.557,4.204-2.052c2.398-0.796,4.83-1.422,7.371-1.583
			c1.477-0.094,2.938-0.211,4.409,0.088c0.762,0.156,1.547,0.164,2.321,0.308c1.704,0.313,3.325,0.858,4.921,1.495
			c1.389,0.555,2.787,1.135,4.004,2.008c1.661,1.191,3.354,2.336,4.727,3.919c0.686,0.792,1.372,1.59,2.043,2.399
			c0.816,0.986,1.4,2.119,2.044,3.218c0.935,1.595,1.571,3.31,2.149,5.042c0.325,0.973,0.389,2.029,0.626,3.035
			c0.476,2.007,0.387,4.053,0.249,6.063c-0.141,2.046-0.479,4.097-1.236,6.046c-0.654,1.685-1.183,3.446-2.145,4.971
			c-1.548,2.454-3.281,4.782-5.619,6.588c-1.064,0.823-2.133,1.624-3.258,2.372c-1.18,0.782-2.441,1.396-3.715,1.885
			c-1.017,0.39-2.009,0.926-3.172,1.051c-1.076,0.117-2.154,0.424-3.235,0.626C51.4,75.378,50.219,75.233,49.046,75.268z"/>
		<path fill-rule="evenodd" clip-rule="evenodd" fill="#FBB35A" d="M81.115,80.374c0.015,1.188-1.334,2.647-2.467,2.707
			c-0.182,0.009-0.384,0.003-0.546-0.065c-2.015-0.848-4.019-1.721-6.034-2.563c-1.734-0.724-3.486-1.413-5.227-2.125
			c-0.976-0.4-1.945-0.816-2.917-1.229c-0.937-0.398-1.142-1.404-0.536-2.162c0.976-1.224,2.089-2.334,3.288-3.328
			c0.894-0.742,1.638-1.616,2.483-2.397c1.265-1.171,2.464-2.412,3.726-3.584c0.539-0.5,1.157-0.924,1.965-0.856
			c0.459,0.037,0.783,0.264,0.943,0.697c0.593,1.615,1.184,3.231,1.77,4.85c1.087,3,2.293,5.955,3.314,8.979
			C81.005,79.676,81.154,80.023,81.115,80.374z"/>
		<path fill-rule="evenodd" clip-rule="evenodd" fill="#FBB35A" d="M57.507,79.61c-0.554,1.327-1.092,2.662-1.666,3.982
			c-0.746,1.718-1.524,3.422-2.277,5.138c-0.45,1.023-0.832,2.079-1.328,3.077c-0.285,0.569-0.499,1.165-0.788,1.728
			c-0.418,0.813-1.167,1.159-2.047,0.999c-0.157-0.029-0.32-0.035-0.48-0.029c-0.841,0.037-1.554-0.406-1.902-1.154
			c-0.832-1.784-1.613-3.595-2.385-5.401c-0.981-2.298-2.034-4.566-2.942-6.896c-0.207-0.53-0.415-1.063-0.653-1.579
			c-0.31-0.673-0.058-1.332,0.645-1.524c0.889-0.243,1.787-0.415,2.722-0.408c2.774,0.022,5.549-0.024,8.322,0.022
			c1.208,0.021,2.426-0.033,3.625,0.216c0.526,0.111,0.947,0.32,1.171,0.832C57.693,78.947,57.674,79.279,57.507,79.61z"/>
		<path fill-rule="evenodd" clip-rule="evenodd" fill="#FBB35A" d="M82.206,20.723c0.174,0.914-0.515,1.666-0.817,2.504
			c-0.798,2.215-1.776,4.368-2.715,6.531c-0.611,1.404-1.109,2.859-1.86,4.204c-0.209,0.376-0.24,0.816-0.473,1.203
			c-0.568,0.945-1.571,1.091-2.356,0.29c-1.604-1.639-3.267-3.226-4.801-4.928c-1.13-1.258-2.396-2.379-3.489-3.68
			c-0.479-0.57-1.073-1.037-1.378-1.748c-0.287-0.668-0.175-0.928,0.443-1.274c1.91-1.067,4.03-1.598,6.041-2.404
			c2.259-0.905,4.551-1.716,6.854-2.494c0.323-0.11,0.637-0.253,0.959-0.373c0.422-0.159,0.8-0.598,1.278-0.413
			c0.895,0.348,1.675,0.892,2.245,1.688C82.311,20.071,82.195,20.367,82.206,20.723z"/>
		<path fill-rule="evenodd" clip-rule="evenodd" fill="#FBB35A" d="M20.204,58.063c-0.826,0.065-1.485-0.478-2.211-0.794
			c-1.086-0.475-2.222-0.815-3.287-1.361c-1.334-0.685-2.752-1.205-4.13-1.809c-1.169-0.511-2.328-1.048-3.503-1.545
			c-0.22-0.093-0.448-0.108-0.476-0.401c-0.016-0.168-0.143-0.137-0.254-0.146c-0.982-0.084-1.681-0.917-1.513-1.888
			c0.085-0.496-0.143-0.953,0.175-1.516c0.516-0.91,1.438-0.908,2.157-1.256c2.585-1.253,5.22-2.402,7.89-3.477
			c1.196-0.482,2.39-0.992,3.565-1.534c0.122-0.056,0.263-0.116,0.39-0.106c0.354,0.028,0.714,0.216,0.857-0.367
			c0.047-0.193,0.439-0.183,0.698-0.091c0.587,0.208,0.921,0.888,0.719,1.489c-0.026,0.08-0.158,0.146-0.074,0.234
			c0.626,0.648,0.308,1.451,0.326,2.178c0.047,1.917,0.036,3.837,0.005,5.755c-0.018,1.132-0.09,2.261-0.007,3.396
			c0.067,0.912-0.062,1.824-0.39,2.7C20.973,57.977,20.694,58.142,20.204,58.063z"/>
		<path fill-rule="evenodd" clip-rule="evenodd" fill="#FBB35A" d="M35.291,24.214c-0.642,0.741-1.045,1.634-1.785,2.345
			c-0.956,0.918-1.938,1.82-2.87,2.769c-0.993,1.011-2.039,1.97-3.068,2.944c-0.837,0.791-1.653,1.609-2.536,2.348
			c-0.872,0.729-1.535,0.413-2.036-0.596c-0.789-1.584-1.308-3.268-1.939-4.904c-0.593-1.535-1.127-3.107-1.692-4.652
			c-0.472-1.293-0.7-2.688-1.457-3.9c-0.734-1.175-0.197-2.09,0.897-3.055c0.395-0.347,0.976-0.83,1.41-0.487
			c0.804,0.636,1.833,0.47,2.658,1.005c0.776,0.504,1.728,0.709,2.596,1.057c2.121,0.852,4.202,1.806,6.3,2.715
			c0.798,0.347,1.6,0.684,2.4,1.024c0.185,0.13,0.396,0.233,0.428,0.501c0.019,0.156,0.129,0.253,0.285,0.236
			C35.463,23.505,35.385,23.852,35.291,24.214z"/>
		<path fill-rule="evenodd" clip-rule="evenodd" fill="#FBB35A" d="M78.051,58.082c-0.659-0.332-0.851-0.889-0.847-1.596
			c0.018-2.654,0.006-5.311,0.006-7.965c0-1.754,0.029-3.508-0.012-5.26c-0.018-0.712,0.421-1.117,0.875-1.455
			c0.445-0.331,0.939-0.031,1.329,0.271c0.51,0.397,1.16,0.407,1.717,0.688c1.724,0.871,3.539,1.541,5.299,2.338
			c1.492,0.674,3.002,1.336,4.531,1.941c0.925,0.365,2.029,0.646,2.644,1.623c0.226,0.359,0.415,0.688-0.026,1.02
			c-0.111,0.084-0.191,0.161-0.146,0.34c0.336,1.304,0.12,1.768-1.045,2.186c-1.68,0.604-3.237,1.479-4.867,2.19
			c-1.219,0.535-2.468,1.007-3.68,1.561c-1.137,0.519-2.34,0.868-3.462,1.429c-0.482,0.241-1.058,0.297-1.462,0.708
			C78.617,58.256,78.332,58.273,78.051,58.082z"/>
		<path fill-rule="evenodd" clip-rule="evenodd" fill="#FBB35A" d="M16.679,80.018c-0.333-1.159,0.244-2.065,0.669-3.091
			c0.372-0.901,0.629-1.89,0.992-2.817c0.738-1.888,1.469-3.784,2.331-5.617c0.462-0.983,1.059-1.893,1.316-2.975
			c0.104-0.434,0.357-0.844,0.603-1.228c0.371-0.581,1.102-0.473,1.808,0.058c0.942,0.709,1.636,1.631,2.435,2.468
			c0.867,0.907,1.777,1.771,2.627,2.703c0.772,0.849,1.479,1.801,2.346,2.511c0.626,0.513,0.88,1.305,1.62,1.722
			c0.299,0.168,0.521,0.729,0.787,1.107c0.252,0.357-0.271,1.186-0.8,1.383c-1.199,0.446-2.434,0.865-3.564,1.407
			c-1.463,0.703-3.091,0.896-4.496,1.698c-0.172,0.1-0.4,0.1-0.603,0.145c-0.298,0.22-0.707,0.002-0.997,0.252
			c-0.181,0.284-0.5,0.358-0.776,0.39c-0.985,0.109-1.729,0.898-2.766,0.921c-0.269,0.007-0.777,0.144-0.984,0.552
			c-0.029,0.058-0.159,0.075-0.245,0.089c-0.42,0.063-1.528-0.535-1.771-0.952c-0.053-0.123-0.102-0.249-0.122-0.382
			C17.053,80.124,17.034,79.869,16.679,80.018z"/>
		<path fill-rule="evenodd" clip-rule="evenodd" fill="#FBB35A" d="M42.214,21.965c-0.981-0.197-1.271-0.696-0.995-1.623
			c0.153-0.513,0.421-0.959,0.647-1.434c0.563-1.18,1.132-2.36,1.492-3.632c0.198-0.701,0.567-1.355,0.869-2.026
			c0.771-1.71,1.53-3.427,2.329-5.124c0.358-0.76,0.802-1.481,1.21-2.217c0.055-0.099,0.115-0.209,0.203-0.271
			c0.806-0.57,3.021,0.099,3.445,0.977c0.536,1.102,1.02,2.233,1.498,3.353c0.807,1.89,1.723,3.73,2.471,5.651
			c0.511,1.31,0.719,2.769,1.645,3.915c0.173,0.214,0.258,0.501,0.019,0.763c-0.124,0.137-0.119,0.291-0.054,0.453
			c0.351,0.873,0.155,1.154-0.794,1.219c-0.781,0.052-1.565,0.032-2.348,0.066c-2.063,0.089-4.13,0.078-6.195,0.066
			c-1.422-0.007-2.843-0.08-4.265-0.123c-0.282-0.008-0.547-0.059-0.765-0.254C42.313,21.504,42.376,21.928,42.214,21.965z"/>
		<path fill-rule="evenodd" clip-rule="evenodd" fill="#F0C280" d="M35.291,24.214c-0.012-0.304-0.001-0.585-0.46-0.576
			c-0.516,0.011-0.396-0.575-0.664-0.811c0.607-0.274,0.419,0.553,0.779,0.571c0.47,0.023,0.548,0.102,0.457,0.654
			C35.393,24.11,35.329,24.16,35.291,24.214z"/>
		<path fill-rule="evenodd" clip-rule="evenodd" fill="#F4C98B" d="M16.679,80.018c0.926-0.309,0.426,0.43,0.531,0.725
			C17.009,80.519,16.758,80.331,16.679,80.018z"/>
		<path fill-rule="evenodd" clip-rule="evenodd" fill="#ECD7AC" d="M57.507,79.61c0.006-0.333,0.011-0.665,0.017-0.998
			C57.941,78.951,57.879,79.283,57.507,79.61z"/>
		<path fill-rule="evenodd" clip-rule="evenodd" fill="#F2DBAC" d="M23.752,79.743c0.237-0.462,0.655-0.208,0.997-0.252
			C24.515,79.967,24.08,79.64,23.752,79.743z"/>
		<path fill-rule="evenodd" clip-rule="evenodd" fill="#F1D7AB" d="M78.051,58.082c0.285,0.006,0.568,0.012,0.854,0.019
			C78.612,58.472,78.326,58.521,78.051,58.082z"/>
		<path fill-rule="evenodd" clip-rule="evenodd" fill="#F4D8A8" d="M42.214,21.965c0.056-0.199-0.124-0.498,0.125-0.591
			c0.205-0.076,0.227,0.197,0.287,0.351C42.485,21.798,42.431,22.021,42.214,21.965z"/>
		<path fill-rule="evenodd" clip-rule="evenodd" fill="#FAE6B0" d="M49.523,7.699c0.028,0.143-0.007,0.221-0.117,0.233
			c-0.2,0.024-0.36-0.074-0.445-0.238c-0.062-0.12,0.055-0.229,0.164-0.247C49.339,7.413,49.44,7.577,49.523,7.699z"/>
	</g>
</g>
<g id="Layer_3" display="none">
	<g display="inline">
		<path fill-rule="evenodd" clip-rule="evenodd" fill="#C6E9F3" d="M11.525,64.32c-0.346-0.086-0.677-0.678-1.045-0.031
			c-0.354-0.482-0.834-0.818-1.292-1.191c-2.745-2.236-4.213-5.115-4.356-8.676c-0.083-2.067,0.176-4.073,1.026-5.958
			c1.724-3.823,4.68-5.933,8.884-6.333c2.217-0.211,2.004,0.035,1.994-2.06c-0.008-1.757,0.02-3.495,0.703-5.163
			c1.114-2.723,3.258-4.119,6.026-4.62c2.477-0.449,4.918-0.192,7.285,0.72c1.083,0.417,1.509,0.094,1.612-1.059
			c0.211-2.35,0.883-4.56,2.296-6.465c0.808-1.09,1.785-2.018,3.153-2.487c1.066-0.366,2.046-0.973,2.98-1.617
			c1.404-0.968,2.99-1.479,4.616-1.896c0.436-0.112,0.879,0.024,1.299,0.104c1.062,0.205,2.143-0.15,3.208,0.24
			c1.35,0.495,2.616,1.079,3.607,2.15c0.44,0.475,0.973,0.838,1.469,1.246c2.565,2.104,4.06,4.803,4.355,8.127
			c0.044,0.488,0.135,0.968,0.174,1.456c0.043,0.542,0.365,0.71,0.859,0.569c0.596-0.17,1.135-0.491,1.721-0.685
			c4.119-1.358,8.055-1.149,11.716,1.383c0.189,0.132,0.384,0.259,0.589,0.368c3.025,1.597,4.659,4.185,5.31,7.469
			c0.229,1.154,0.397,1.285,1.588,1.313c1.671,0.04,3.347-0.131,5.013,0.133c2.573,0.408,4.684,1.555,6.276,3.679
			c0.872,1.161,1.698,2.301,2.117,3.726c0.53,1.805,0.491,3.645,0.243,5.437c-0.351,2.545-1.393,4.892-2.739,7.082
			c-2.006,3.26-6.881,5.58-11.032,4.537c-1.179-0.295-1.337-0.209-1.939,0.818c-1.879,3.205-4.659,5.037-8.322,5.645
			c-1.853,0.307-3.665,0.379-5.513,0.008c-1.48-0.297-2.774-0.916-3.937-1.857c-0.811-0.658-1.068-0.625-1.829,0.123
			c-1.257,1.238-2.662,2.227-4.296,2.953c-1.903,0.848-3.856,0.797-5.835,0.672c-0.582-0.037-1.188-0.051-1.746-0.285
			c-0.601-0.283-1.38-0.201-1.85-0.693c-0.521-0.545-1.192-0.752-1.809-1.092c-0.32-0.176-0.665-0.262-1.015-0.342
			c-0.99-0.82-1.956-1.664-2.767-2.674c-0.673-0.838-1.178-0.93-2.056-0.352c-2.454,1.617-5.251,2.158-8.082,2.574
			c-2.03,0.299-3.993-0.014-5.869-0.844c-1.697-0.752-2.801-2.045-3.393-3.787c-0.33-0.973-0.462-1.064-1.488-1.094
			c-1.77-0.053-3.548,0.15-5.312-0.154c-0.741-0.127-1.439-0.385-2.126-0.676C11.794,64.678,11.542,64.617,11.525,64.32z"/>
		<path fill-rule="evenodd" clip-rule="evenodd" fill="#010101" d="M11.525,64.32c1.422,0.674,2.912,1.08,4.495,1.074
			c1.259-0.006,2.519-0.018,3.778-0.066c0.644-0.025,0.994,0.221,1.172,0.844c0.886,3.1,3.172,4.453,6.173,4.92
			c1.993,0.309,3.905-0.02,5.84-0.508c1.998-0.502,3.923-1.094,5.634-2.287c0.443-0.309,1.016-0.35,1.39,0.127
			c0.95,1.213,2.096,2.221,3.217,3.258c0.838,0.369,1.56,0.936,2.336,1.408c0.674,0.41,1.366,0.646,2.146,0.645
			c2.031,0.346,4.087,0.574,6.104,0.092c1.956-0.469,3.672-1.488,5.153-2.869c0.313-0.293,0.616-0.6,0.915-0.908
			c0.466-0.479,0.938-0.451,1.418-0.033c2.594,2.252,5.627,2.664,8.901,2.188c1.885-0.275,3.656-0.793,5.278-1.832
			c1.453-0.93,2.552-2.16,3.438-3.611c0.626-1.027,0.662-1.508,2.386-1.141c2.626,0.559,5.167,0.104,7.482-1.348
			c2.264-1.418,3.75-3.4,4.668-5.918c0.469-1.287,1.071-2.531,1.241-3.896c0.405-3.267,0.273-6.377-2.06-9.095
			c-0.988-1.151-2.068-2.104-3.308-2.906c-0.839-0.542-1.86-0.705-2.808-0.875c-1.941-0.35-3.931-0.174-5.901-0.169
			c-0.698,0.002-0.986-0.405-1.064-0.974c-0.484-3.501-2.167-6.138-5.321-7.868c-1.363-0.749-2.624-1.69-4.165-2.058
			c-3.076-0.733-6.073-0.552-8.956,0.832c-0.229,0.11-0.458,0.239-0.702,0.3c-0.758,0.19-1.117-0.093-1.157-0.867
			c-0.077-1.537-0.217-3.056-0.827-4.502c-0.832-1.968-1.922-3.732-3.695-4.993c-1.024-0.728-1.745-1.806-2.88-2.412
			c-0.864-0.461-1.769-0.806-2.713-1.036c-0.725-0.177-1.458,0.152-2.205,0.008c-2.123-0.409-3.949,0.453-5.681,1.495
			c-1.115,0.67-2.201,1.388-3.404,1.885c-2.828,1.168-4.033,3.562-4.832,6.28c-0.253,0.86-0.373,1.739-0.404,2.631
			c-0.04,1.161-0.729,1.585-1.807,1.135c-2.612-1.091-5.325-1.331-8.047-0.619c-3.883,1.017-5.624,3.765-5.778,7.618
			c-0.039,0.977-0.015,1.957-0.002,2.936c0.01,0.699-0.264,1-1.01,1.021c-2.786,0.078-5.352,0.794-7.456,2.753
			c-1.809,1.685-2.807,3.805-3.277,6.182c-0.725,3.667-0.024,7.032,2.291,10.014c0.697,0.897,1.532,1.651,2.5,2.247
			c0.34,0.209,0.532,0.459,0.457,0.869c-0.271,0.453-0.553,0.863-1.075,0.252c-0.095-0.111-0.24-0.156-0.346-0.082
			c-0.594,0.412-0.967-0.027-1.34-0.355c-2.352-2.07-4.02-4.598-4.379-7.73c-0.217-1.889-0.233-3.832,0.114-5.755
			c0.354-1.956,0.939-3.755,2.458-5.132c0.093-0.084,0.142-0.247,0.244-0.285c0.934-0.343,1.335-1.21,1.927-1.898
			c1.242-1.442,2.798-2.335,4.713-2.552c0.661-0.075,1.319-0.209,1.981-0.234c0.448-0.016,0.477-0.218,0.487-0.573
			c0.041-1.433-0.063-2.859,0.199-4.298c0.384-2.106,1.514-3.664,3.088-5.021c1.573-1.356,3.425-1.918,5.423-2.019
			c1.743-0.087,3.497-0.083,5.236,0.148c0.35,0.046,0.717,0.11,1.028,0.264c0.702,0.346,0.733-0.068,0.778-0.583
			c0.386-4.443,2.798-7.409,6.734-9.299c1.138-0.546,2.193-1.262,3.313-1.851c1.683-0.884,3.421-1.394,5.39-1.108
			c0.922,0.133,1.901-0.042,2.869,0.038c1.737,0.143,3.236,0.801,4.472,1.94c1.448,1.333,3.117,2.435,4.322,4.024
			c1.458,1.926,2.516,4.019,2.585,6.5c0.018,0.602,0.222,0.806,0.857,0.564c1.202-0.458,2.45-0.734,3.755-0.659
			c1.714,0.099,3.442-0.204,5.146,0.234c1.271,0.327,2.47,0.803,3.573,1.519c1.54,1,3.146,1.894,4.373,3.323
			c1.411,1.645,2.42,3.462,2.674,5.636c0.06,0.513,0.358,0.555,0.743,0.555c0.979,0,1.958,0.018,2.937-0.004
			c2.232-0.049,4.243,0.561,6.276,1.532c2.831,1.353,4.291,3.664,5.375,6.38c0.317,0.794,0.326,1.658,0.363,2.491
			c0.147,3.268-0.037,6.454-1.53,9.507c-0.788,1.61-1.625,3.113-2.895,4.369c-0.254,0.252-0.494,0.547-0.905,0.514
			c-0.266-0.023-0.394,0.162-0.455,0.34c-0.243,0.699-0.758,1.066-1.444,1.189c-0.749,0.135-1.159,0.811-1.848,1.064
			c-1.646,0.602-3.346,0.502-5.031,0.443c-1.104-0.041-1.856,0.145-2.579,1.174c-1.485,2.117-3.461,3.736-5.962,4.629
			c-1.392,0.498-2.84,0.646-4.288,0.742c-2.047,0.133-4.102,0.119-6.116-0.363c-0.951-0.229-1.821-0.674-2.604-1.248
			c-0.382-0.281-0.578-0.209-0.896,0.072c-1.293,1.152-2.668,2.188-4.342,2.74c-1.222,0.402-2.479,0.574-3.761,0.578
			c-0.128,0-0.269,0-0.382-0.051c-1.533-0.668-3.1-0.664-4.735-0.428c-0.56,0.082-1.24-0.285-1.791-0.584
			c-2.125-1.154-4.076-2.559-5.682-4.385c-0.33-0.375-0.503-0.389-0.928-0.129c-1.155,0.705-2.408,1.195-3.746,1.477
			c-1.242,0.26-2.43,0.775-3.716,0.826c-2.58,0.105-5.195,0.354-7.605-0.865c-1.823-0.922-3.206-2.33-3.97-4.262
			c-0.196-0.494-0.437-0.598-0.972-0.584c-2.126,0.055-4.262,0.141-6.339-0.502c-0.373-0.115-0.611-0.17-0.241-0.564
			c0.104-0.109,0.344-0.197,0.184-0.424c-0.132-0.186-0.32-0.215-0.546-0.188c-0.25,0.029-0.636,0.232-0.707-0.137
			C10.869,64.818,10.936,64.352,11.525,64.32z"/>
		<path fill-rule="evenodd" clip-rule="evenodd" fill="#FDFEFD" d="M20.35,40.399c0,0.257,0.008,0.515-0.002,0.771
			c-0.02,0.473-0.037,0.964-0.67,1.026c-0.603,0.06-1.138,0.021-1.222-0.785c-0.273-2.63,0.391-4.943,2.179-6.935
			c0.928-1.035,2.052-1.378,3.382-1.236c0.702,0.075,0.981,0.483,0.86,1.329c-0.092,0.644-0.63,0.761-1.093,0.632
			c-0.671-0.186-1.109,0.127-1.501,0.521C21,37.008,20.291,38.549,20.35,40.399z"/>
		<path fill-rule="evenodd" clip-rule="evenodd" fill="#FDFEFF" d="M13.858,62c-1.52-0.141-3.056-0.37-4.305-1.358
			c-1.12-0.886-1.729-2.133-2.03-3.524c-0.043-0.199-0.072-0.402-0.103-0.603c-0.083-0.551-0.164-1.13,0.548-1.315
			c0.729-0.191,1.252,0.171,1.4,0.92c0.175,0.883,0.339,1.758,0.993,2.455c1.049,1.119,2.363,1.48,3.837,1.396
			c0.476-0.026,0.835,0.165,0.99,0.576c0.156,0.417,0.112,0.85-0.218,1.225C14.647,62.141,14.241,61.896,13.858,62z"/>
		<path fill-rule="evenodd" clip-rule="evenodd" fill="#FCFDFD" d="M17.402,62.367c-0.409,0.01-0.898-0.447-0.864-0.987
			c0.037-0.587,0.362-0.921,0.991-0.946c0.716-0.029,0.906,0.488,0.922,0.994C18.469,61.967,18.081,62.305,17.402,62.367z"/>
		<path fill-rule="evenodd" clip-rule="evenodd" fill="#F0F9F9" d="M47.708,73.734c-0.498,0.32-1.004,0.16-1.444-0.074
			c-1.066-0.574-2.178-1.086-3.039-1.977c0.667-0.135,1.089,0.459,1.666,0.563c0.66,0.117,0.928,0.752,1.478,1.021
			C46.804,73.48,47.346,73.346,47.708,73.734z"/>
	</g>
</g>
<g id="Layer_4" display="none">
	<g display="inline">
		<path fill-rule="evenodd" clip-rule="evenodd" fill="#C6E9F3" d="M9.917,58.648c-0.281-0.146-0.563-0.293-0.844-0.438
			c-1.325-0.521-2.315-1.494-3.15-2.576C3.446,52.43,2.618,48.841,3.59,44.86c0.389-1.588,0.961-3.071,1.904-4.421
			c1.433-2.054,3.378-3.342,5.769-3.981c1.026-0.273,2.069-0.467,3.142-0.473c0.818-0.004,1.075-0.264,1.102-1.094
			c0.035-1.014,0.009-2.028,0.011-3.042c0.007-4.218,3.035-7.481,7.237-7.903c2.446-0.247,4.806-0.08,7.095,0.888
			c0.971,0.411,1.508-0.017,1.582-1.259c0.103-1.711,0.556-3.309,1.256-4.872c0.532-1.186,1.344-2.105,2.281-2.948
			c0.572-0.515,1.188-0.931,1.939-1.205c1.133-0.413,2.161-1.068,3.154-1.756c1.395-0.966,2.985-1.443,4.611-1.823
			c0.189-0.044,0.384,0.001,0.577,0.021c0.813,0.085,1.623,0.144,2.449,0.117c1.369-0.043,2.667,0.432,3.723,1.228
			c1.763,1.332,3.573,2.663,4.917,4.452c1.429,1.899,2.385,4.018,2.457,6.453c0.013,0.437,0.101,0.864,0.163,1.292
			c0.09,0.613,0.447,0.814,1.041,0.601c0.409-0.146,0.785-0.375,1.193-0.524c4.122-1.51,8.128-1.434,11.935,0.953
			c0.694,0.436,1.406,0.844,2.089,1.3c2.558,1.707,3.775,4.241,4.39,7.141c0.223,1.048,0.289,1.118,1.392,1.12
			c1.828,0.004,3.656-0.024,5.481,0.05c0.412,0.017,0.724,0.365,1.123,0.475c4.183,1.158,6.55,4.115,7.4,8.153
			c0.589,2.797,0.245,5.671-1.033,8.345c-0.633,1.322-1.084,2.729-2.019,3.906c-1.735,2.184-3.94,3.641-6.673,4.152
			c-1.438,0.27-2.933,0.195-4.394-0.051c-1.068-0.18-1.342-0.043-1.858,0.896c-1.578,2.871-4.017,4.645-7.152,5.447
			c-1.418,0.363-2.855,0.648-4.354,0.619c-2.456-0.051-4.645-0.762-6.575-2.277c-0.795-0.625-1.07-0.6-1.776,0.127
			c-2.512,2.584-5.519,4.008-9.176,3.861c-1.033-0.041-2.051-0.248-3.073-0.398c-0.148-0.006,0.09-0.277-0.182-0.236
			c-0.495,0.072-0.929-0.182-1.383-0.324c-0.113-0.035-0.227-0.084-0.316-0.164c-0.689-0.617-1.796-1.209-2.771-1.473
			c-1.062-0.803-2.024-1.707-2.856-2.748c-0.678-0.852-1.118-0.943-2.039-0.338c-2.555,1.674-5.459,2.232-8.401,2.65
			c-2.131,0.303-4.183-0.053-6.107-1.012c-1.638-0.816-2.665-2.189-3.268-3.887c-0.348-0.982-0.556-1.102-1.594-0.992
			c-2.521,0.264-5.006,0.125-7.41-0.766C10.321,59.041,10.03,58.965,9.917,58.648z"/>
		<path fill-rule="evenodd" clip-rule="evenodd" fill="#010101" d="M46.868,68.32c1.185-0.08,2.318,0.324,3.503,0.33
			c3.438,0.012,6.241-1.363,8.603-3.764c0.919-0.934,1.126-0.975,2.13-0.166c1.799,1.451,3.865,2.135,6.164,2.162
			c2.473,0.031,4.835-0.396,7.063-1.535c1.895-0.969,3.361-2.363,4.414-4.191c0.856-1.49,0.826-1.381,2.53-1.113
			c2.604,0.408,5.138,0.092,7.438-1.355c1.896-1.191,3.411-2.734,4.309-4.811c0.771-1.783,1.696-3.552,1.872-5.502
			c0.206-2.286,0.375-4.656-0.714-6.784c-1.027-2.008-2.468-3.693-4.424-4.954c-1.027-0.662-2.282-0.561-3.238-1.286
			c-0.602,0.443-1.175-0.104-1.784-0.063c-1.395,0.094-2.799,0.002-4.198,0.042c-0.707,0.02-1.026-0.328-1.107-0.945
			c-0.306-2.295-1.185-4.324-2.75-6.04c-0.273-0.299-0.561-0.609-0.897-0.825c-1.949-1.25-3.774-2.74-6.097-3.297
			c-3.154-0.756-6.219-0.536-9.156,0.904c-0.239,0.117-0.476,0.237-0.729,0.292c-0.668,0.143-1.047-0.182-1.088-0.869
			c-0.078-1.292-0.117-2.586-0.552-3.833c-0.821-2.359-2.021-4.449-4.104-5.926c-0.962-0.682-1.622-1.708-2.682-2.278
			c-1.354-0.728-2.693-1.467-4.331-1.125c-0.293,0.061-0.624-0.027-0.932-0.074c-2.331-0.354-4.276,0.588-6.139,1.81
			c-1.027,0.672-2.129,1.199-3.214,1.762c-0.259,0.133-0.552-0.12-0.836,0.197c-0.952,1.062-2.167,1.864-2.829,3.214
			c-0.897,1.836-1.449,3.733-1.54,5.78c-0.046,1.031-0.79,1.353-1.813,0.934c-2.954-1.212-5.977-1.418-9.01-0.382
			c-3.413,1.165-4.924,3.982-5.058,7.297c-0.042,1.036,0.001,2.076-0.008,3.113c-0.008,0.887-0.23,1.094-1.107,1.122
			c-2.896,0.094-5.542,0.868-7.672,2.937c-1.638,1.591-2.6,3.556-3.104,5.776c-0.908,4.005-0.147,7.613,2.437,10.826
			c0.808,1.006,1.884,1.695,2.855,2.51c-0.021,0.318-0.078,0.619-0.337,0.842c-0.108,0.094-0.236,0.273-0.36,0.16
			c-0.702-0.652-1.878-0.025-2.504-1.049c-0.503-0.82-1.364-1.395-1.931-2.205c-1.523-2.176-2.36-4.559-2.266-7.244
			c0.053-1.487-0.082-2.977,0.253-4.456c0.521-2.301,1.386-4.362,3.58-5.567c0.495-0.271,0.543-0.824,0.878-1.213
			c1.405-1.63,3.079-2.653,5.243-2.835c0.26-0.022,0.512-0.124,0.772-0.157c1.513-0.196,1.536-0.194,1.507-1.729
			c-0.038-1.988,0.004-3.971,1.063-5.73c1.546-2.568,3.726-4.23,6.797-4.609c2.12-0.262,4.226-0.17,6.335,0.026
			c0.42,0.04,0.846,0.161,1.237,0.321c0.457,0.188,0.538,0.016,0.565-0.395c0.105-1.595,0.493-3.111,1.252-4.532
			c1.241-2.319,3.08-4,5.446-5.104c1.207-0.563,2.317-1.292,3.486-1.918c1.757-0.941,3.559-1.454,5.602-1.193
			c0.917,0.117,1.883-0.045,2.839,0.033c1.987,0.163,3.651,0.983,5.036,2.339c1.065,1.044,2.324,1.856,3.323,2.977
			c1.884,2.114,3.143,4.489,3.311,7.365c0.042,0.737,0.181,0.858,0.797,0.628c1.343-0.5,2.716-0.766,4.154-0.706
			c0.819,0.035,1.642,0.027,2.462,0.002c2.307-0.067,4.359,0.646,6.283,1.886c1.51,0.974,3.067,1.854,4.277,3.237
			c1.466,1.676,2.514,3.53,2.773,5.767c0.056,0.472,0.284,0.594,0.718,0.588c1.328-0.018,2.658-0.041,3.984,0.006
			c0.936,0.032,1.87,0.108,2.757,0.509c0.297,0.134,0.668,0.163,1.001,0.249c1.02,0.259,1.735,1.101,2.803,1.301
			c0.488,0.091,0.938,0.645,1.307,1.074c1.295,1.511,2.577,3.052,3.109,5.026c0.191,0.71,0.279,1.464,0.302,2.201
			c0.098,3.145,0.138,6.254-1.264,9.237c-0.85,1.809-1.64,3.6-3.095,5.008c-0.323,0.313-0.613,0.697-1.142,0.662
			c-0.253-0.018-0.331,0.193-0.385,0.35c-0.221,0.658-0.698,1-1.336,1.154c-0.383,0.094-0.753,0.242-1.034,0.494
			c-0.963,0.855-2.155,1.018-3.345,1.084c-1.348,0.074-2.703,0.039-4.055,0.004c-0.366-0.01-0.572,0.129-0.75,0.393
			c-1.816,2.688-4.106,4.758-7.296,5.705c-1.186,0.354-2.402,0.492-3.614,0.547c-2.566,0.113-5.151,0.271-7.603-0.813
			c-0.533-0.236-0.983-0.592-1.48-0.877c-0.314-0.18-0.467-0.172-0.734,0.07c-0.993,0.898-2.053,1.717-3.257,2.324
			c-1.776,0.896-3.666,1.199-5.638,1.074c-0.047-0.004-0.101-0.004-0.141-0.025c-1.202-0.641-2.458-0.736-3.779-0.449
			c-1.002,0.217-1.905-0.191-2.747-0.654c-2.101-1.146-4.005-2.568-5.595-4.369c-0.348-0.393-0.592-0.385-0.983-0.131
			c-1.424,0.926-3.066,1.264-4.663,1.752c-2.772,0.85-5.581,0.83-8.387,0.465c-2.034-0.264-3.694-1.365-5.017-2.947
			c-0.587-0.703-1.101-1.445-1.374-2.332c-0.138-0.447-0.465-0.43-0.859-0.426c-2.112,0.016-4.236,0.174-6.307-0.43
			c-0.473-0.137-0.999-0.213-0.301-0.787c0.085-0.07,0.168-0.158,0.046-0.293c-0.141-0.154-0.292-0.258-0.501-0.209
			c-0.274,0.066-0.641,0.25-0.772-0.063c-0.156-0.367,0.015-0.748,0.394-0.975c2.593,1.176,5.32,1.342,8.097,1.039
			c1.17-0.127,1.429,0.027,1.782,1.133c0.863,2.709,2.877,4.064,5.538,4.633c2.284,0.486,4.502,0.162,6.739-0.416
			c2.017-0.521,3.955-1.143,5.681-2.348c0.428-0.299,0.986-0.316,1.36,0.16c0.962,1.227,2.115,2.262,3.262,3.303
			c0.752,0.314,1.368,0.857,2.059,1.271C45.203,67.887,45.97,68.256,46.868,68.32z"/>
		<path fill-rule="evenodd" clip-rule="evenodd" fill="#010101" d="M25.276,76.707c0.033,1.389-0.24,2.629-0.143,3.885
			c0.041,0.529-0.23,0.865-0.726,0.893c-0.5,0.027-0.817-0.324-0.851-0.807c-0.065-0.938-0.078-1.883,0.066-2.814
			c0.081-0.523,0.038-1.035,0.055-1.664c-2.161,1.416-4.228,2.773-6.299,4.125c-0.216,0.141-0.29,0.379-0.443,0.559
			c-0.229,0.266-0.527,0.336-0.854,0.229c-0.333-0.109-0.491-0.355-0.515-0.707c-0.047-0.717,0.425-1.104,0.934-1.439
			c1.566-1.037,3.145-2.055,4.719-3.082c0.339-0.223,0.672-0.453,1.08-0.729c-0.679-0.369-1.302-0.697-1.913-1.045
			c-0.271-0.154-0.537-0.328-0.773-0.531c-0.365-0.314-0.521-0.711-0.2-1.141c0.32-0.428,0.747-0.416,1.153-0.139
			c0.758,0.52,1.566,0.941,2.388,1.34c0.234,0.113,0.475,0.213,0.782,0.352c0-0.789-0.007-1.51,0.004-2.229
			c0.003-0.264,0.033-0.531,0.084-0.789c0.085-0.434,0.388-0.699,0.811-0.682c0.465,0.02,0.755,0.342,0.763,0.813
			c0.01,0.646,0.08,1.297-0.086,1.979c0.371,0.016,0.581-0.236,0.84-0.365c0.775-0.383,1.539-0.791,2.321-1.156
			c0.255-0.119,0.554-0.176,0.836-0.193c0.459-0.027,0.808,0.174,0.9,0.654c0.096,0.496-0.186,0.807-0.623,0.914
			c-1.481,0.361-2.67,1.285-4.005,1.99c0.303,0.348,0.697,0.482,1.039,0.693c1.312,0.807,2.62,1.619,3.937,2.418
			c0.466,0.283,0.773,0.652,0.49,1.184c-0.31,0.578-0.822,0.506-1.307,0.211C28.283,78.551,26.834,77.66,25.276,76.707z"/>
		<path fill-rule="evenodd" clip-rule="evenodd" fill="#010101" d="M72.376,84.117c0.983,0.027,1.736,0.238,2.513,0.17
			c0.549-0.047,0.921,0.207,0.923,0.762c0.002,0.551-0.397,0.795-0.911,0.822c-1.087,0.061-2.163-0.055-3.229-0.24
			c-0.409-0.072-0.517,0.02-0.484,0.408c0.034,0.406,0.009,0.811,0.11,1.217c0.138,0.555-0.029,1.076-0.645,1.174
			c-0.558,0.09-0.857-0.271-0.935-0.852c-0.04-0.307-0.124-0.609-0.125-1.027c-0.387,0.287-0.714,0.545-1.056,0.781
			c-0.296,0.205-0.602,0.396-0.914,0.572c-0.464,0.26-0.848,0.127-1.103-0.313c-0.258-0.443-0.056-0.813,0.318-1.055
			c0.709-0.459,1.378-0.961,2.019-1.582c-0.78-0.34-1.52-0.654-2.25-0.984c-0.497-0.225-0.918-0.543-0.65-1.162
			c0.263-0.609,0.753-0.559,1.275-0.326c0.809,0.355,1.624,0.691,2.483,1.057c0.083-0.732,0.156-1.375,0.229-2.02
			c0.059-0.51,0.27-0.912,0.846-0.881c0.605,0.035,0.799,0.467,0.773,1.014c-0.015,0.33-0.055,0.658-0.091,1.07
			c0.394-0.254,0.701-0.479,1.032-0.656c0.435-0.23,0.862-0.188,1.143,0.248c0.289,0.451,0.107,0.826-0.3,1.115
			C73.08,83.621,72.81,83.811,72.376,84.117z"/>
		<path fill-rule="evenodd" clip-rule="evenodd" fill="#FFFFFF" d="M22.627,26.875c0.726-0.078,1.18,0.562,1.101,1.258
			c-0.061,0.534-0.278,0.892-0.867,0.809c-1.212-0.173-1.924,0.495-2.539,1.403c-0.962,1.421-1.405,2.949-1.185,4.678
			c0.061,0.483-0.078,1.034-0.72,1.157c-0.707,0.136-1.109-0.11-1.262-0.824c-0.325-1.508-0.02-2.967,0.523-4.36
			c0.444-1.144,1.05-2.218,2.003-3.051C20.408,27.31,21.231,26.93,22.627,26.875z"/>
		<path fill-rule="evenodd" clip-rule="evenodd" fill="#FFFFFF" d="M12.117,56.182c-3.719-0.059-5.747-2.254-6.245-5.652
			c-0.078-0.531,0.001-1.034,0.676-1.152c0.787-0.138,1.175,0.081,1.308,0.852c0.17,0.988,0.504,1.876,1.146,2.664
			c0.618,0.758,1.434,1.129,2.357,1.236c0.568,0.066,1.128,0.207,1.714,0.182c0.569-0.023,0.934,0.43,0.893,1.064
			c-0.035,0.539-0.365,0.809-0.908,0.807C12.744,56.18,12.43,56.182,12.117,56.182z"/>
		<path fill-rule="evenodd" clip-rule="evenodd" fill="#FCFDFD" d="M15.271,55.594c-0.004-0.658,0.396-0.867,0.978-0.863
			c0.596,0.006,0.918,0.346,0.917,0.955c-0.002,0.625-0.387,1.018-0.978,0.994C15.651,56.658,15.267,56.201,15.271,55.594z"/>
		<path fill-rule="evenodd" clip-rule="evenodd" fill="#EFF8F9" d="M46.868,68.32c-0.458,0.236-0.907,0.104-1.312-0.107
			c-1.122-0.588-2.282-1.125-3.181-2.061c0.356-0.213,0.574,0.115,0.824,0.238c0.471,0.234,0.952,0.41,1.465,0.512
			c0.113,0.021,0.322,0.041,0.325,0.074c0.106,1.217,1.161,0.848,1.83,1.061C47.208,68.16,46.905,68.221,46.868,68.32z"/>
	</g>
</g>
</svg>
