<?xml version="1.0" encoding="utf-8"?>
<!-- Generator: Adobe Illustrator 16.0.0, SVG Export Plug-In . SVG Version: 6.00 Build 0)  -->
<!DOCTYPE svg PUBLIC "-//W3C//DTD SVG 1.1//EN" "http://www.w3.org/Graphics/SVG/1.1/DTD/svg11.dtd">
<svg version="1.1"
	 id="svg8" xmlns:cc="http://creativecommons.org/ns#" xmlns:dc="http://purl.org/dc/elements/1.1/" xmlns:svg="http://www.w3.org/2000/svg" xmlns:sodipodi="http://sodipodi.sourceforge.net/DTD/sodipodi-0.dtd" xmlns:rdf="http://www.w3.org/1999/02/22-rdf-syntax-ns#" xmlns:inkscape="http://www.inkscape.org/namespaces/inkscape"
	 xmlns="http://www.w3.org/2000/svg" xmlns:xlink="http://www.w3.org/1999/xlink" x="0px" y="0px" width="32px" height="32px"
	 viewBox="0 0 32 32" enable-background="new 0 0 32 32" xml:space="preserve">
<g id="layer1" transform="translate(0,-288.53332)">
	<path id="path940" fill="#FFFFFF" stroke="#000000" stroke-width="2" stroke-miterlimit="10" d="M14,289.528
		c-0.431,0-0.813,0.275-0.949,0.684l-1.016,3.047c-0.41,0.145-0.811,0.31-1.203,0.498l-2.873-1.436
		c-0.385-0.192-0.85-0.117-1.154,0.188l-2.828,2.828c-0.304,0.304-0.38,0.769-0.188,1.154l1.434,2.867
		c-0.188,0.394-0.355,0.797-0.5,1.209l-3.043,1.016c-0.409,0.136-0.684,0.519-0.684,0.949v4c0,0.432,0.275,0.813,0.684,0.949
		l3.053,1.019c0.144,0.407,0.309,0.806,0.496,1.194l-1.439,2.879c-0.192,0.386-0.117,0.851,0.188,1.154l2.828,2.83
		c0.304,0.305,0.769,0.381,1.154,0.188l2.873-1.438c0.392,0.188,0.792,0.352,1.201,0.496l1.018,3.051
		c0.136,0.408,0.519,0.684,0.949,0.684h4c0.431,0,0.813-0.274,0.949-0.684l1.018-3.057c0.406-0.143,0.806-0.309,1.193-0.494
		l2.881,1.441c0.386,0.191,0.851,0.117,1.153-0.188l2.828-2.829c0.306-0.306,0.381-0.771,0.188-1.154l-1.437-2.871
		c0.188-0.393,0.354-0.795,0.498-1.205l3.047-1.016c0.408-0.138,0.685-0.52,0.685-0.949v-4c0-0.431-0.274-0.813-0.685-0.949
		l-3.049-1.016c-0.145-0.41-0.311-0.81-0.498-1.201l1.438-2.875c0.192-0.385,0.117-0.85-0.188-1.154l-2.828-2.828
		c-0.305-0.304-0.77-0.38-1.153-0.188l-2.864,1.432c-0.396-0.189-0.8-0.355-1.214-0.5l-1.014-3.041
		c-0.138-0.409-0.519-0.684-0.949-0.684L14,289.528L14,289.528z M15.996,297.526c3.854,0,7.006,3.152,7.006,7.006
		s-3.152,6.998-7.006,6.998c-3.854,0-6.998-3.145-6.998-6.998C8.998,300.678,12.142,297.526,15.996,297.526z"/>
</g>
</svg>
