<?xml version="1.0" ?><svg viewBox="0 0 32 32" xmlns="http://www.w3.org/2000/svg"><title/><g data-name="Layer 45" id="Layer_45"><path d="M24,25H8.3a1.74,1.74,0,0,1-1.74-1.74V7.58A1.74,1.74,0,0,1,8.3,5.84H24a1.74,1.74,0,0,1,1.74,1.74v6.17a.5.5,0,0,0,1,0V7.58A2.75,2.75,0,0,0,24,4.84H8.3A2.75,2.75,0,0,0,5.56,7.58v15.7A2.75,2.75,0,0,0,8.3,26H24a.5.5,0,0,0,0-1Z"/><path d="M30.27,19.54h0a.47.47,0,0,0,0-.1h0a.5.5,0,0,0-.13-.2h0L25,14.7a.5.5,0,0,0-.67.75l4.1,3.66H15.95a1,1,0,0,1-1.07-.9V12.87a.5.5,0,0,0-1,0V18.2a2,2,0,0,0,2.07,1.9H28.46l-4.1,3.66a.5.5,0,0,0,.67.75L30.11,20a.49.49,0,0,0,.14-.2.5.5,0,0,0,0-.24Z"/></g></svg>