<?xml version="1.0" encoding="utf-8"?>
<!-- Generator: Adobe Illustrator 16.0.0, SVG Export Plug-In . SVG Version: 6.00 Build 0)  -->
<!DOCTYPE svg PUBLIC "-//W3C//DTD SVG 1.1//EN" "http://www.w3.org/Graphics/SVG/1.1/DTD/svg11.dtd">
<svg version="1.1" xmlns="http://www.w3.org/2000/svg" xmlns:xlink="http://www.w3.org/1999/xlink" x="0px" y="0px" width="48px"
	 height="48px" viewBox="0 0 48 48" enable-background="new 0 0 48 48" xml:space="preserve">
<g id="Layer_1">
	<path fill="#010101" stroke="#000000" stroke-miterlimit="10" d="M27.75,13.973v26.812l13.086-6.539
		c0.258-0.129,0.418-0.391,0.414-0.676V7.582L27.75,13.973z M27,42.75c-0.141,0-0.277-0.039-0.398-0.113
		C26.383,42.5,26.25,42.258,26.25,42V13.5c0-0.289,0.168-0.551,0.426-0.676l12.82-6.074H33.75C33.336,6.75,33,6.414,33,6
		s0.336-0.75,0.75-0.75h6.75c1.242,0,2.25,1.008,2.25,2.25v26.07c0,0.854-0.48,1.637-1.246,2.016l-14.168,7.078v0.004
		C27.234,42.723,27.117,42.75,27,42.75z"/>
	<path fill="#010101" stroke="#000000" stroke-linejoin="round" stroke-miterlimit="10" d="M18.75,14.25
		c-0.414,0-0.75-0.336-0.75-0.75v-6c0-1.242,1.008-2.25,2.25-2.25h16.5c0.414,0,0.75,0.336,0.75,0.75s-0.336,0.75-0.75,0.75h-16.5
		c-0.414,0-0.75,0.336-0.75,0.75v6c0,0.199-0.078,0.391-0.219,0.531C19.141,14.172,18.949,14.25,18.75,14.25z M27,35.25h-6.75
		C19.008,35.25,18,34.242,18,33v-6c0-0.414,0.336-0.75,0.75-0.75S19.5,26.586,19.5,27v6c0,0.199,0.078,0.391,0.219,0.531
		c0.14,0.141,0.332,0.219,0.531,0.219H27c0.414,0,0.75,0.336,0.75,0.75S27.414,35.25,27,35.25z"/>
	<path fill="#1AC78D" stroke="#1AC78D" stroke-miterlimit="10" d="M22.167,21H6.417c-0.414,0-0.75-0.336-0.75-0.75
		s0.336-0.75,0.75-0.75h15.75c0.414,0,0.75,0.336,0.75,0.75S22.581,21,22.167,21z"/>
	<path fill="#1AC78D" stroke="#1AC78D" stroke-linejoin="round" stroke-miterlimit="10" d="M12.304,27.752
		c-0.199,0-0.391-0.078-0.531-0.219l-6.75-6.75C4.878,20.643,4.8,20.452,4.8,20.252s0.078-0.391,0.223-0.531l6.75-6.75
		c0.293-0.297,0.769-0.297,1.062,0c0.297,0.293,0.297,0.769,0,1.062l-6.222,6.219l6.226,6.218h-0.004
		c0.145,0.141,0.223,0.332,0.223,0.531s-0.078,0.391-0.223,0.531C12.695,27.674,12.503,27.752,12.304,27.752z"/>
</g>
<g id="Layer_2" display="none">
	<g id="Layer_2_1_" display="inline">
		<path d="M24,40.438c-9.492,0-17.188-7.695-17.188-17.189c0-9.492,7.696-17.188,17.188-17.188c9.493,0,17.188,7.696,17.188,17.188
			C41.188,32.742,33.493,40.438,24,40.438z M24,8.706c-8.032,0-14.543,6.512-14.543,14.543c0,8.033,6.512,14.544,14.543,14.544
			c8.032,0,14.544-6.512,14.544-14.544C38.544,15.217,32.032,8.706,24,8.706z"/>
		<path fill="#1AC78D" d="M31.933,24.57H16.067c-0.73,0-1.322-0.589-1.322-1.322c0-0.73,0.592-1.322,1.322-1.322h15.865
			c0.731,0,1.323,0.592,1.323,1.322C33.256,23.981,32.664,24.57,31.933,24.57z"/>
	</g>
</g>
<g id="Layer_3" display="none">
	<g id="Layer_2_2_" display="inline">
		<path d="M24,40.438c-9.492,0-17.188-7.695-17.188-17.189c0-9.491,7.696-17.187,17.188-17.187c9.493,0,17.188,7.696,17.188,17.187
			C41.188,32.742,33.493,40.438,24,40.438z M24,8.706c-8.032,0-14.543,6.512-14.543,14.542c0,8.033,6.512,14.545,14.543,14.545
			c8.032,0,14.544-6.512,14.544-14.545C38.544,15.217,32.032,8.706,24,8.706z"/>
		<path fill="#1AC78D" d="M31.933,24.57H16.067c-0.73,0-1.322-0.589-1.322-1.322c0-0.73,0.592-1.322,1.322-1.322h15.865
			c0.731,0,1.323,0.592,1.323,1.322C33.256,23.981,32.664,24.57,31.933,24.57z"/>
		<path fill="#1AC78D" d="M25.322,15.317v15.865c0,0.73-0.59,1.322-1.322,1.322c-0.73,0-1.322-0.592-1.322-1.322V15.317
			c0-0.731,0.592-1.323,1.322-1.323C24.732,13.994,25.322,14.586,25.322,15.317z"/>
	</g>
</g>
<g id="Layer_4" display="none">
	<path display="inline" fill="#1AC78D" d="M20.805,37.156c-0.673,0.004-1.32-0.261-1.797-0.734L8.885,26.299
		c-0.993-0.992-0.993-2.602,0-3.594c0.992-0.992,2.602-0.992,3.593,0l8.327,8.352l15.919-15.943c0.991-0.993,2.601-0.993,3.593,0
		c0.992,0.992,0.992,2.602,0,3.593L22.601,36.422C22.124,36.896,21.478,37.16,20.805,37.156z"/>
</g>
<g id="Layer_5" display="none">
	<path display="inline" fill="#010101" stroke="#000000" stroke-miterlimit="10" d="M12.065,29.808l-2.364,9.43l9.429-2.363
		c-0.739-0.598-1.333-1.363-1.723-2.232c-0.39-0.832-0.542-1.754-0.442-2.668c-0.914,0.101-1.835-0.052-2.668-0.441
		C13.428,31.142,12.663,30.547,12.065,29.808z M8.725,40.928c-0.189,0-0.372-0.074-0.505-0.208
		c-0.189-0.183-0.265-0.457-0.187-0.714l3.081-12.319c0.082-0.301,0.349-0.517,0.665-0.527c0.313-0.012,0.595,0.181,0.698,0.479
		c0.421,1.152,1.286,2.084,2.405,2.59c0.876,0.424,1.894,0.457,2.797,0.086c0.267-0.119,0.583-0.06,0.792,0.148
		c0.208,0.208,0.267,0.523,0.148,0.791c-0.371,0.906-0.337,1.929,0.094,2.806c0.494,1.114,1.419,1.979,2.559,2.403
		c0.306,0.104,0.502,0.394,0.487,0.713c-0.012,0.316-0.23,0.583-0.535,0.664L8.896,40.928C8.84,40.936,8.781,40.936,8.725,40.928z"
		/>
	<path display="inline" fill="#010101" stroke="#000000" stroke-miterlimit="10" d="M17.998,30.265
		c0.241-0.004,0.464,0.119,0.598,0.319c0.134,0.201,0.156,0.457,0.059,0.677c-0.382,0.898-0.36,1.917,0.057,2.798
		c0.431,0.972,1.188,1.764,2.14,2.239l16.886-16.864l-8.233-8.232L12.641,28.088c0.476,0.951,1.267,1.709,2.241,2.14
		c0.876,0.424,1.894,0.457,2.797,0.086C17.779,30.276,17.891,30.258,17.998,30.265z M21.037,37.848
		c-0.074,0.011-0.148,0.011-0.223,0c-1.52-0.544-2.753-1.69-3.407-3.169c-0.39-0.832-0.542-1.754-0.442-2.668
		c-0.914,0.101-1.835-0.056-2.668-0.441c-1.478-0.658-2.622-1.888-3.169-3.411c-0.078-0.251-0.01-0.523,0.171-0.713L29.003,9.689
		h0.003c0.275-0.274,0.725-0.274,1.004,0l4.614,4.623l4.621,4.614l0.004,0.004c0.275,0.278,0.275,0.729,0,1.003L21.564,37.64
		C21.424,37.777,21.233,37.852,21.037,37.848z"/>
	<path display="inline" fill="#010101" stroke="#000000" stroke-miterlimit="10" d="M30.519,10.198l8.224,8.226l1.298-1.296
		l-8.226-8.229L30.519,10.198z M38.74,20.148c-0.189,0-0.372-0.078-0.505-0.215l-9.229-9.228c-0.138-0.134-0.212-0.316-0.212-0.506
		c0-0.193,0.074-0.375,0.212-0.509l2.303-2.288c0.134-0.134,0.315-0.212,0.505-0.212c0.19,0,0.372,0.078,0.506,0.212l4.614,4.621
		l4.604,4.596c0.134,0.134,0.212,0.316,0.212,0.506c0,0.189-0.078,0.371-0.212,0.505l-2.312,2.303
		C39.097,20.066,38.926,20.141,38.74,20.148z"/>
	<path display="inline" fill="#010101" stroke="#000000" stroke-miterlimit="10" d="M32.855,7.914l8.17,8.169
		c1.798-2.318,1.594-5.613-0.483-7.687C38.469,6.319,35.174,6.115,32.855,7.914z M41.051,17.838c-0.189,0-0.371-0.074-0.505-0.208
		l-9.273-9.236c-0.134-0.134-0.208-0.316-0.208-0.505c0.004-0.19,0.078-0.372,0.208-0.509c2.831-2.835,7.423-2.839,10.258-0.007
		c2.835,2.83,2.839,7.422,0.008,10.257C41.407,17.76,41.233,17.834,41.051,17.838z"/>
	<path display="inline" fill="#1AC78D" stroke="#1AC78D" stroke-miterlimit="10" d="M23.315,21.822c-0.19,0-0.372-0.074-0.506-0.209
		c-0.275-0.278-0.275-0.727,0-1.002l5.395-5.395c0.275-0.275,0.725-0.275,1.004,0c0.138,0.133,0.212,0.316,0.212,0.505
		c0,0.193-0.074,0.375-0.212,0.509l-5.387,5.388l0.004-0.005C23.686,21.748,23.504,21.822,23.315,21.822z"/>
</g>
</svg>
