<?xml version="1.0" ?><svg viewBox="0 0 64 64" xmlns="http://www.w3.org/2000/svg"><g id="Outline"><g data-name="Outline" id="Outline-2"><path d="M28.5,44.52a3.4,3.4,0,0,0,4.09.66v2.53c.15,4.38,6.7,4.38,6.83,0V45.18a3.46,3.46,0,0,0,4.11-.65,3.24,3.24,0,0,0,0-4.63l-5-4.8a3.52,3.52,0,0,0-5-.06l-5,4.87A3.19,3.19,0,0,0,28.5,44.52Zm1.39-3.19L35,36.41a1.52,1.52,0,0,1,2.12.06l5,4.86a1.24,1.24,0,0,1,0,1.82,1.4,1.4,0,0,1-2,.06l-1-1a1,1,0,0,0-1.7.72v4.68a1.42,1.42,0,0,1-2.83,0V43a1,1,0,0,0-1.69-.72l-1,1C30.79,44.38,28.61,42.66,29.89,41.33Z"/><path d="M59,14H57V9a1,1,0,0,0-1-1H50V3a1,1,0,0,0-1-1H7A1,1,0,0,0,6,3V14H5.68A3.85,3.85,0,0,0,2,18V57.92A3.93,3.93,0,0,0,5.74,62H58.41A3.86,3.86,0,0,0,62,57.92V17A3,3,0,0,0,59,14Zm0,2a1,1,0,0,1,1,1v5H57V16Zm-4,6H34.36a.83.83,0,0,1-.57-.23l-7.42-7A2.83,2.83,0,0,0,24.43,14H15V10H55ZM4,57.92V18a1.86,1.86,0,0,1,1.68-2H6V57a1,1,0,0,0,1,1h3a4.42,4.42,0,0,0,.51,2H5.74A1.93,1.93,0,0,1,4,57.92Zm56,0A1.91,1.91,0,0,1,58.41,60H13.59A1.91,1.91,0,0,1,12,57.92V41a1,1,0,0,0-2,0V56H8V4H48V8H14a1,1,0,0,0-1,1v5.06A3.87,3.87,0,0,0,10,18V33a1,1,0,0,0,2,0V18a1.84,1.84,0,0,1,1.53-2h10.9a.83.83,0,0,1,.57.23l7.42,7a2.83,2.83,0,0,0,1.94.78H60Z"/><path d="M32,15H52a1,1,0,0,0,0-2H32a1,1,0,0,0,0,2Z"/><path d="M52,17H37a1,1,0,0,0,0,2H52a1,1,0,0,0,0-2Z"/><circle cx="11" cy="37" r="1"/><path d="M22,42A14,14,0,1,0,36,28,14,14,0,0,0,22,42ZM36,30A12,12,0,1,1,24,42,12,12,0,0,1,36,30Z"/></g></g></svg>