<?xml version="1.0" encoding="utf-8"?>
<!-- Generator: Adobe Illustrator 16.0.0, SVG Export Plug-In . SVG Version: 6.00 Build 0)  -->
<!DOCTYPE svg PUBLIC "-//W3C//DTD SVG 1.1//EN" "http://www.w3.org/Graphics/SVG/1.1/DTD/svg11.dtd">
<svg version="1.1" id="Layer_1" xmlns="http://www.w3.org/2000/svg" xmlns:xlink="http://www.w3.org/1999/xlink" x="0px" y="0px"
	 width="72px" height="57px" viewBox="0 0 72 57" enable-background="new 0 0 72 57" xml:space="preserve">
<title></title>
<g id="Layer_2">
	<path d="M43.125,51.656h-14.25c-4.919,0-8.906-3.987-8.906-8.906V21.375c0-0.984,0.797-1.781,1.781-1.781s1.781,0.797,1.781,1.781
		V42.75c0,2.951,2.393,5.344,5.344,5.344h14.25c2.951,0,5.344-2.393,5.344-5.344V21.375c0-0.984,0.797-1.781,1.781-1.781
		s1.781,0.797,1.781,1.781V42.75C52.031,47.669,48.044,51.656,43.125,51.656z"/>
	<path d="M53.813,16.031H18.188c-0.984,0-1.781-0.797-1.781-1.781s0.797-1.781,1.781-1.781h35.625c0.984,0,1.781,0.797,1.781,1.781
		S54.797,16.031,53.813,16.031z"/>
	<path d="M43.125,16.031h-14.25c-0.984,0-1.781-0.797-1.781-1.781v-3.563c0-2.951,2.393-5.344,5.344-5.344h7.125
		c2.951,0,5.344,2.393,5.344,5.344v3.563C44.906,15.234,44.109,16.031,43.125,16.031z M30.656,12.469h10.688v-1.781
		c0-0.984-0.797-1.781-1.781-1.781h-7.125c-0.984,0-1.781,0.797-1.781,1.781V12.469z"/>
	<path fill="#1AC78D" d="M32.438,40.969c-0.984,0-1.781-0.797-1.781-1.781V26.719c0-0.984,0.797-1.781,1.781-1.781
		s1.781,0.797,1.781,1.781v12.469C34.219,40.172,33.421,40.969,32.438,40.969z"/>
	<path fill="#1AC78D" d="M39.563,40.969c-0.984,0-1.781-0.797-1.781-1.781V26.719c0-0.984,0.797-1.781,1.781-1.781
		s1.781,0.797,1.781,1.781v12.469C41.344,40.172,40.547,40.969,39.563,40.969z"/>
</g>
</svg>
