<?xml version="1.0" encoding="utf-8"?>
<!-- Generator: Adobe Illustrator 16.0.0, SVG Export Plug-In . SVG Version: 6.00 Build 0)  -->
<!DOCTYPE svg PUBLIC "-//W3C//DTD SVG 1.1//EN" "http://www.w3.org/Graphics/SVG/1.1/DTD/svg11.dtd">
<svg version="1.1" id="Layer_1" xmlns="http://www.w3.org/2000/svg" xmlns:xlink="http://www.w3.org/1999/xlink" x="0px" y="0px"
	 width="50px" height="50px" viewBox="0 0 50 50" enable-background="new 0 0 50 50" xml:space="preserve">
<g>
	<path fill="#FDF2A8" d="M14.458,0.586C14.47,0.31,14.674,0.163,14.855,0c0.195,0,0.391,0,0.585,0
		c0.374,0.242,0.535,0.576,0.493,1.025c-0.026,0.289,0,0.583-0.007,0.874c-0.01,0.4-0.32,0.776-0.705,0.786
		c-0.404,0.01-0.721-0.156-0.764-0.624C14.39,1.569,14.39,1.078,14.458,0.586z"/>
	<path fill="#F04F5B" d="M5.669,37.727c-0.004-0.197-0.01-0.395-0.013-0.591c0.255-1.908,1.691-3.339,3.645-3.636
		c1.688-0.211,3.379-0.249,5.08-0.244c6.831,0.019,13.662,0.007,20.494,0.007c0.195,0,0.392-0.004,0.586,0.015
		c1.155-0.026,2.311-0.009,3.466-0.009c0.194,0,0.394,0.006,0.551,0.153c0.42,0.067,0.855-0.078,1.268,0.098
		c-0.067,0.081-0.16,0.118-0.258,0.121c-0.999,0.019-1.997,0.063-2.994-0.045c-0.064-0.021,0.019,0.096-0.003,0.035
		c-0.007-0.021,0.007-0.029,0.043-0.023c1.152,0.212,1.861,1.01,2.452,1.921c0.473,0.728,0.593,1.575,0.61,2.428
		c0.021,1.104-0.012,2.208,0.017,3.312c0.011,0.111-0.024,0.211-0.08,0.303c-0.314,0.463-0.694,0.856-1.186,1.14
		c-1.092,0.629-2.368,0.479-3.296-0.375c-0.671-0.617-1.109-1.4-1.581-2.159c-0.31-0.498-0.621-0.995-1.026-1.422
		c-1.213-1.279-2.976-1.194-4.073,0.182c-0.458,0.574-0.848,1.195-1.228,1.821c-0.33,0.545-0.714,1.044-1.171,1.493
		c-1.152,1.138-2.701,1.145-3.876,0.034c-0.685-0.647-1.151-1.448-1.642-2.233c-0.319-0.513-0.642-1.031-1.084-1.438
		c-1.269-1.167-2.897-0.995-4.004,0.399c-0.548,0.691-0.972,1.464-1.454,2.196c-0.36,0.55-0.75,1.076-1.317,1.423
		c-1.358,0.827-2.833,0.535-3.861-0.747c-0.49-0.613-0.877-1.294-1.291-1.955c-0.251-0.4-0.528-0.781-0.847-1.132
		c-0.43-0.47-0.941-0.795-1.57-0.926C5.897,37.845,5.769,37.822,5.669,37.727z"/>
	<path fill="#FDF2A6" d="M35.484,33.435c-0.212,0.004-0.425,0.013-0.635,0.013c-7.198,0.002-14.397-0.001-21.594,0.003
		c-1.318,0.002-2.636,0.032-3.955,0.05c0.271-0.165,0.571-0.086,0.852-0.072c0.384,0.02,0.407-0.177,0.407-0.475
		c-0.008-2.319-0.005-4.639-0.004-6.959c0-0.52,0.005-1.037,0.008-1.556c0.505-0.1,0.926,0.079,1.298,0.401
		c0.47,0.411,0.847,0.896,1.165,1.434c0.29,0.49,0.576,0.986,0.987,1.392c0.877,0.864,2.074,0.81,2.872-0.134
		c0.326-0.386,0.608-0.805,0.865-1.24c0.257-0.438,0.581-0.818,0.904-1.209c0.766-0.932,2.393-0.927,3.225,0.098
		c0.38,0.469,0.711,0.975,1.014,1.493c0.268,0.459,0.61,0.845,1.002,1.191c0.629,0.557,1.553,0.575,2.195,0.037
		c0.387-0.324,0.737-0.689,0.991-1.135c0.267-0.468,0.571-0.912,0.884-1.349c0.562-0.783,1.314-1.142,2.285-0.989
		c0.783,0.124,1.22,0.712,1.652,1.281c0.414,0.543,0.713,1.168,1.146,1.701c0.534,0.653,1.182,1.007,2.051,0.805
		c0.193-0.045,0.398-0.09,0.483,0.179c0.099,1.561,0.036,3.121,0.033,4.682C35.617,33.207,35.564,33.328,35.484,33.435z"/>
	<path fill="#F04F5B" d="M35.473,28.256c-1.254,0.313-1.914,0.082-2.688-0.988c-0.371-0.514-0.677-1.074-1.047-1.589
		c-0.405-0.558-0.862-1.063-1.615-1.158c-0.894-0.111-1.55,0.277-2.053,0.965c-0.308,0.42-0.58,0.866-0.856,1.305
		c-0.235,0.375-0.496,0.726-0.815,1.031c-0.82,0.79-1.931,0.787-2.756,0.009c-0.493-0.468-0.813-1.053-1.177-1.612
		c-0.257-0.396-0.506-0.795-0.85-1.128c-0.821-0.795-1.986-0.799-2.802-0.01c-0.404,0.389-0.701,0.854-0.992,1.326
		c-0.316,0.514-0.627,1.029-1.072,1.446c-0.793,0.743-1.938,0.737-2.733-0.007c-0.325-0.305-0.568-0.67-0.809-1.037
		c-0.143-0.217-0.274-0.441-0.411-0.664c-0.525-0.854-1.146-1.584-2.231-1.706c0.009-2.345,1.605-4.108,3.909-4.315
		c0.521-0.255,1.051-0.154,1.581-0.039c1.936,0.001,3.875,0.083,5.804-0.024c1.657-0.094,3.312-0.118,4.962-0.063
		c1.458,0.047,2.916,0.083,4.375,0.089c0.298,0,0.595-0.001,0.892,0.001c2.037,0.257,3.572,2.282,3.532,4.268
		c-0.026,1.248-0.018,2.499,0.006,3.748C35.612,28.19,35.584,28.264,35.473,28.256z"/>
	<path fill="#FBE45C" d="M40.45,41.536c0.033-0.068,0.064-0.135,0.098-0.202c-0.023-0.175,0.073-0.309,0.161-0.442
		c0.443-0.677,0.837-1.385,1.348-2.016c0.49-0.605,1.082-1.062,1.867-1.217c0.174-0.033,0.351-0.091,0.504,0.059
		c0.009,1.709,0.021,3.417,0.024,5.125c0.001,1.252-0.009,2.505-0.015,3.757c-1.325,0.003-2.65,0.004-3.978,0.007
		c-0.175-0.186-0.156-0.421-0.157-0.646c-0.004-1.222,0-2.443-0.002-3.665C40.3,42.03,40.336,41.776,40.45,41.536z"/>
	<path fill="#FBE45C" d="M35.473,28.256c0.034-0.036,0.069-0.071,0.104-0.107c0.804-0.726,1.32-1.666,1.913-2.55
		c0.319-0.476,0.728-0.865,1.276-1.082c0.228-0.089,0.458-0.174,0.689-0.001c0.007,2.077,0.016,4.152,0.022,6.229
		c0.002,0.891,0,1.784,0,2.677c-1.332,0.004-2.662,0.009-3.993,0.013C35.479,31.708,35.477,29.981,35.473,28.256z"/>
	<path fill="#E93645" d="M39.455,24.516c-0.824-0.023-1.363,0.457-1.804,1.062c-0.391,0.536-0.72,1.115-1.099,1.66
		c-0.257,0.369-0.535,0.732-0.977,0.911c-0.163-0.141-0.098-0.333-0.098-0.503c-0.006-1.089-0.003-2.178-0.003-3.267
		c0-1.927-1.092-3.438-2.931-4.065c-0.133-0.046-0.292-0.051-0.388-0.18c0.085-0.063,0.186-0.052,0.282-0.048
		c0.828,0.041,1.65-0.049,2.474-0.105c0.224-0.016,0.46-0.026,0.654,0.131c2.035,0.245,3.374,1.431,3.846,3.394
		C39.493,23.842,39.468,24.178,39.455,24.516z"/>
	<path fill="#FFDA64" d="M16.026,20.103c-0.518,0.007-1.036,0.014-1.553,0.02c-0.001-4.928-0.003-9.857-0.003-14.786
		c0-0.538,0.312-0.913,0.74-0.913c0.443,0,0.736,0.348,0.736,0.901c0.003,4.718,0.001,9.435,0.006,14.152
		c0.001,0.185-0.077,0.392,0.085,0.557c0.029,0.02,0.036,0.036,0.023,0.05C16.049,20.097,16.038,20.103,16.026,20.103z"/>
	<path fill="#E93645" d="M44.428,37.718c-0.983,0.033-1.741,0.502-2.301,1.275c-0.552,0.762-1.054,1.559-1.579,2.341
		c-0.142-0.131-0.085-0.305-0.087-0.46c-0.005-0.896-0.008-1.791-0.001-2.686c0.015-2.129-0.847-3.689-2.885-4.501
		c-0.079-0.032-0.199-0.022-0.246-0.168c1.147,0,2.281,0,3.415,0c1.814,0.126,3.494,1.809,3.627,3.632
		C44.386,37.34,44.409,37.529,44.428,37.718z"/>
	<path fill="#94DAF8" d="M16.026,20.103c0.006-0.022,0.009-0.045,0.01-0.068c1.946,0.004,3.891,0.003,5.835,0.019
		c0.319,0.003,0.422-0.097,0.417-0.416c-0.014-0.875,0-1.75,0.004-2.626c0.182-0.178,0.414-0.163,0.639-0.163
		c1.39-0.004,2.783-0.004,4.172,0c0.225,0,0.457-0.015,0.639,0.163c0.005,0.875,0.019,1.752,0.005,2.626
		c-0.006,0.32,0.1,0.421,0.417,0.416c1.038-0.016,2.076-0.006,3.113-0.007c0.002,0.021,0.005,0.039,0.006,0.057
		C26.197,20.103,21.112,20.103,16.026,20.103z"/>
	<path fill="#94DAF8" d="M22.293,14.065c-0.003-0.91,0.003-1.822-0.016-2.731c-0.006-0.299,0.089-0.407,0.391-0.391
		c0.388,0.021,0.78-0.013,1.17,0.012c0.327,0.02,0.415-0.108,0.413-0.421c-0.015-1.252-0.004-2.506-0.003-3.758
		c0.124-0.038,0.15,0.059,0.189,0.136c0.105,1.085,0.02,2.172,0.047,3.258c0.013,0.57,0.083,0.63,0.602,0.63
		c0.371,0,0.47-0.186,0.469-0.517c-0.006-0.893-0.005-1.786,0-2.679c0-0.226-0.022-0.456,0.062-0.675
		c0.026-0.057,0.067-0.096,0.127-0.12c0.1,1.199,0.034,2.398,0.033,3.596c-0.001,0.414,0.087,0.6,0.533,0.55
		c0.336-0.038,0.681,0.008,1.021-0.013c0.302-0.017,0.438,0.059,0.43,0.398c-0.023,0.909-0.015,1.816-0.018,2.725
		c-0.182,0.177-0.415,0.163-0.639,0.163c-1.39,0.004-2.782,0.006-4.172,0C22.708,14.228,22.475,14.242,22.293,14.065z"/>
	<path fill="#FFDA64" d="M24.33,6.837c-0.027-0.021-0.055-0.042-0.082-0.062c-0.443-0.251-0.838-0.541-1.066-1.028
		c-0.232-0.501-0.261-0.997-0.077-1.509c0.472-1.317,1.149-2.53,1.916-3.8c0.816,1.401,1.634,2.719,2.02,4.242
		c0.157,0.625-0.298,1.509-0.891,1.877c-0.136,0.085-0.272,0.169-0.407,0.254c-0.018,0.005-0.032,0.017-0.039,0.034
		C25.244,7.146,24.787,7.148,24.33,6.837z"/>
	<path fill="#BFE7F9" d="M22.293,14.065c1.817,0,3.633,0,5.45,0c0,0.982,0,1.964,0,2.947c-1.817,0-3.633,0-5.45,0
		C22.293,16.029,22.293,15.047,22.293,14.065z"/>
	<path fill="#FFDA64" d="M31.284,20.103c-0.009-0.018-0.01-0.036-0.006-0.057c0.749,0,1.497-0.024,2.244,0.006
		c0.432,0.019,0.581-0.088,0.577-0.555c-0.023-2.861-0.012-5.725-0.012-8.587c0-0.162-0.004-0.324,0.006-0.487
		c0.029-0.406,0.335-0.709,0.716-0.72c0.357-0.011,0.711,0.314,0.752,0.701c0.015,0.128,0.006,0.26,0.006,0.39
		c0,3.106,0,6.212,0,9.318c-1.138,0.007-2.274,0.015-3.41,0.022C31.865,20.123,31.575,20.112,31.284,20.103z"/>
	<path fill="#FDF2A8" d="M17.809,3.712c-0.61-0.009-0.958-0.544-0.659-1.066c0.275-0.482,0.692-0.856,1.141-1.173
		c0.332-0.234,0.653-0.089,0.907,0.186c0.265,0.287,0.298,0.626,0.049,0.918c-0.316,0.369-0.681,0.693-1.025,1.036
		C18.105,3.728,17.955,3.713,17.809,3.712z"/>
	<path fill="#FDF2A8" d="M13.291,3.074c0.043,0.33-0.167,0.521-0.441,0.664c-0.283,0.146-0.546,0.083-0.766-0.119
		c-0.323-0.298-0.635-0.61-0.933-0.931c-0.218-0.233-0.277-0.507-0.116-0.808c0.166-0.308,0.427-0.437,0.765-0.411
		C12.284,1.506,13.283,2.574,13.291,3.074z"/>
	<path fill="#FDF1A7" d="M37.368,8.99c-0.316,0.038-0.494-0.167-0.637-0.418c-0.154-0.275-0.108-0.547,0.093-0.769
		c0.307-0.336,0.63-0.659,0.965-0.968c0.236-0.219,0.518-0.257,0.811-0.09c0.282,0.163,0.408,0.41,0.392,0.73
		C38.966,7.984,37.893,8.993,37.368,8.99z"/>
	<path fill="#FDF2A8" d="M30.588,7.438c-0.035-0.322,0.194-0.505,0.428-0.638c0.238-0.137,0.522-0.092,0.728,0.093
		c0.358,0.324,0.7,0.67,1.031,1.025c0.23,0.25,0.174,0.543,0.027,0.812c-0.145,0.266-0.394,0.371-0.692,0.356
		C31.583,9.062,30.571,7.971,30.588,7.438z"/>
	<path fill="#FDF2A8" d="M11.791,9.868c-0.356,0.041-0.548-0.175-0.678-0.449c-0.124-0.266-0.121-0.529,0.111-0.757
		c0.313-0.305,0.612-0.626,0.93-0.924c0.305-0.283,0.653-0.3,0.961-0.025c0.309,0.276,0.388,0.617,0.137,0.995
		c-0.264,0.396-0.623,0.699-0.966,1.016C12.155,9.843,11.974,9.896,11.791,9.868z"/>
	<path fill="#FDF2A8" d="M31.377,15.146c-0.604-0.019-0.935-0.563-0.634-1.083c0.27-0.467,0.68-0.825,1.104-1.145
		c0.319-0.239,0.648-0.12,0.915,0.15c0.261,0.263,0.333,0.603,0.112,0.877c-0.333,0.413-0.741,0.767-1.125,1.138
		C31.649,15.18,31.504,15.141,31.377,15.146z"/>
	<path fill="#FDF2A8" d="M38.308,15.051c-0.228,0.029-0.405-0.052-0.563-0.218c-0.253-0.272-0.529-0.525-0.785-0.794
		c-0.292-0.304-0.293-0.802-0.012-1.089c0.271-0.28,0.729-0.299,1.048-0.01c0.313,0.28,0.609,0.582,0.892,0.893
		c0.211,0.23,0.281,0.506,0.115,0.803C38.851,14.91,38.648,15.099,38.308,15.051z"/>
	<path fill="#FDF2A8" d="M19.448,9.074c-0.015,0.602-0.624,0.944-1.15,0.593c-0.454-0.303-0.862-0.684-1.116-1.193
		c-0.185-0.371,0.015-0.622,0.266-0.848c0.244-0.22,0.541-0.279,0.794-0.056c0.39,0.341,0.744,0.723,1.112,1.089
		C19.471,8.776,19.443,8.929,19.448,9.074z"/>
	<path fill="#FDF2A8" d="M31.27,10.257c0.45,0.082,0.625,0.373,0.583,0.801c-0.039,0.404-0.352,0.656-0.813,0.667
		c-0.372,0.009-0.744,0.01-1.115,0c-0.427-0.011-0.796-0.323-0.774-0.709c0.023-0.387,0.178-0.729,0.653-0.759
		C30.292,10.188,30.781,10.187,31.27,10.257z"/>
	<path fill="#FFF3A8" d="M11.639,4.977c0.467,0.045,0.633,0.361,0.62,0.769c-0.013,0.386-0.387,0.694-0.791,0.702
		c-0.357,0.007-0.714,0.007-1.071,0C9.936,6.438,9.62,6.184,9.583,5.781C9.543,5.351,9.715,5.058,10.168,4.98
		C10.658,4.909,11.149,4.913,11.639,4.977z"/>
	<path fill="#FDF2A8" d="M20.32,4.883c0.422,0.1,0.607,0.432,0.552,0.794c-0.058,0.39-0.361,0.653-0.791,0.67
		c-0.374,0.016-0.749,0.01-1.122,0.002c-0.434-0.009-0.712-0.239-0.771-0.663c-0.059-0.426,0.121-0.727,0.578-0.805
		C19.285,4.813,19.802,4.81,20.32,4.883z"/>
	<path fill="#FDF2A8" d="M39.882,10.158c0.461,0.042,0.585,0.358,0.571,0.749c-0.017,0.413-0.268,0.672-0.664,0.71
		c-0.433,0.04-0.875,0.04-1.308,0c-0.419-0.039-0.697-0.332-0.708-0.737c-0.012-0.368,0.168-0.694,0.621-0.72
		C38.891,10.089,39.387,10.09,39.882,10.158z"/>
	<path fill="#FFF3A8" d="M35.481,7.33c-0.038,0.47-0.355,0.638-0.761,0.633c-0.379-0.004-0.7-0.389-0.709-0.783
		c-0.008-0.339,0.007-0.681-0.005-1.02c-0.016-0.448,0.166-0.771,0.609-0.866c0.454-0.097,0.732,0.147,0.862,0.576
		C35.551,6.357,35.548,6.844,35.481,7.33z"/>
	<path fill="#FDF2A8" d="M20.32,4.883c-0.518,0-1.036,0-1.554,0C19.285,4.731,19.802,4.726,20.32,4.883z"/>
	<path fill="#FDF1A7" d="M39.882,10.158c-0.495,0-0.991,0.001-1.487,0.001C38.891,10.009,39.387,10.005,39.882,10.158z"/>
	<path fill="#FFF3A8" d="M35.481,7.33c-0.002-0.486-0.002-0.973-0.003-1.46C35.633,6.357,35.633,6.844,35.481,7.33z"/>
	<path fill="#FFF3A8" d="M11.639,4.977c-0.49,0.001-0.981,0.001-1.471,0.003C10.658,4.825,11.149,4.831,11.639,4.977z"/>
	<path fill="#FDF2A8" d="M14.458,0.586c0,0.492,0,0.983,0,1.475C14.31,1.569,14.303,1.078,14.458,0.586z"/>
	<path fill="#FDF2A8" d="M31.27,10.257c-0.488,0-0.978-0.001-1.467-0.001C30.292,10.109,30.781,10.098,31.27,10.257z"/>
	<path fill="#FDF2A6" d="M40.45,41.536c0.003,1.69,0.007,3.381,0.01,5.07c-0.244,0.003-0.487,0.009-0.731,0.009
		c-11.354,0-22.707-0.001-34.059-0.003c0-2.962,0-5.923,0-8.886c1.024,0.008,1.751,0.557,2.313,1.337
		c0.609,0.844,1.132,1.75,1.748,2.586c1.32,1.789,3.374,1.795,4.697,0.011c0.621-0.835,1.132-1.748,1.748-2.586
		c1.343-1.825,3.369-1.839,4.725-0.029c0.613,0.818,1.124,1.714,1.719,2.546c0.441,0.617,0.992,1.126,1.765,1.308
		c1.327,0.312,2.282-0.287,3.023-1.299c0.603-0.827,1.12-1.717,1.718-2.547c0.572-0.801,1.323-1.332,2.366-1.332
		c1.004,0,1.745,0.496,2.302,1.266c0.631,0.868,1.174,1.797,1.805,2.665c0.956,1.319,2.384,1.685,3.632,0.992
		C39.729,42.368,40.069,41.934,40.45,41.536z"/>
	<path fill="#F7B9D4" d="M12.076,38.71c0.405,0.005,0.734,0.354,0.72,0.767c-0.016,0.442-0.313,0.721-0.759,0.708
		c-0.407-0.012-0.688-0.305-0.694-0.723C11.336,39.051,11.672,38.706,12.076,38.71z"/>
	<path fill="#F7B9D4" d="M38.693,39.438c0.007,0.435-0.292,0.744-0.72,0.746c-0.438,0.003-0.732-0.293-0.732-0.732
		c0-0.395,0.309-0.725,0.694-0.742C38.34,38.693,38.686,39.026,38.693,39.438z"/>
	<path fill="#F7B9D4" d="M25.717,39.486c-0.006,0.463-0.27,0.714-0.732,0.698c-0.43-0.013-0.668-0.27-0.665-0.719
		c0.001-0.434,0.309-0.76,0.708-0.753C25.429,38.719,25.723,39.051,25.717,39.486z"/>
	<path fill="#F7B9D4" d="M16.116,25.332c0.01,0.418-0.313,0.757-0.721,0.76c-0.392,0.002-0.709-0.301-0.731-0.701
		c-0.023-0.417,0.286-0.76,0.697-0.773C15.783,24.605,16.104,24.909,16.116,25.332z"/>
	<path fill="#F7B9D4" d="M35.373,25.341c0.007,0.417-0.32,0.753-0.729,0.751c-0.39-0.001-0.706-0.31-0.723-0.709
		c-0.019-0.418,0.293-0.756,0.705-0.764C35.046,24.609,35.367,24.919,35.373,25.341z"/>
	<path fill="#F7B9D4" d="M25.717,25.328c0.008,0.463-0.258,0.758-0.688,0.764c-0.432,0.008-0.707-0.281-0.71-0.741
		c-0.003-0.44,0.248-0.717,0.664-0.732C25.428,24.602,25.71,24.875,25.717,25.328z"/>
	<path fill="#7586B3" d="M24.33,6.837c0.457,0.085,0.915,0.08,1.374,0.007c0.001,1.221-0.014,2.442,0.014,3.663
		c0.008,0.39-0.14,0.456-0.484,0.453c-0.91-0.013-0.91,0.001-0.91-0.899C24.324,8.987,24.328,7.912,24.33,6.837z"/>
	<path fill="#BFE7F9" d="M49.431,46.555c-1.934,0.003-3.869-0.049-5.802-0.055c-4.47-0.016-11.347-0.009-18.316,0.026
		c-0.133,0-0.264,0.001-0.392,0.001c-0.13-0.001-0.26-0.001-0.391-0.001C17.56,46.491,10.683,46.484,6.212,46.5
		c-1.931,0.006-3.867,0.058-5.801,0.055C0.013,46.554,0.074,46.802,0,47.007c0,0.032,0,0.064,0,0.098
		c0.058,0.838,0.444,1.498,1.051,2.063c0.483,0.452,1.033,0.711,1.685,0.771c7.145,0,14.29,0,21.435,0
		c0.252,0,0.503-0.004,0.75-0.012c0.247,0.008,0.496,0.012,0.749,0.012c7.145,0,14.289,0,21.435,0
		c0.651-0.06,1.203-0.318,1.686-0.771c0.606-0.565,0.993-1.226,1.051-2.063c0-0.033,0-0.065,0-0.098
		C49.767,46.802,49.827,46.554,49.431,46.555z"/>
</g>
</svg>
