<?xml version="1.0" encoding="utf-8"?>
<!-- Generator: Adobe Illustrator 16.0.0, SVG Export Plug-In . SVG Version: 6.00 Build 0)  -->
<!DOCTYPE svg PUBLIC "-//W3C//DTD SVG 1.1//EN" "http://www.w3.org/Graphics/SVG/1.1/DTD/svg11.dtd">
<svg version="1.1" id="Layer_1" xmlns="http://www.w3.org/2000/svg" xmlns:xlink="http://www.w3.org/1999/xlink" x="0px" y="0px"
	 width="512px" height="512px" viewBox="0 0 512 512" enable-background="new 0 0 512 512" xml:space="preserve">
<g>
	<path fill-rule="evenodd" clip-rule="evenodd" fill="#FFFFFF" d="M3,477.94C3,320.46,3.016,162.979,2.906,5.5
		C2.903,1.751,3.749,0.892,7.5,0.903C55.993,1.049,104.487,1,152.981,1c0.508,3.08-2.948,4.309-3.253,7.009
		c-0.635,4.54-0.745,9.066,0.166,13.575c1.086,3.844,3.71,5.535,7.54,4.826c3.723-0.689,4.976-3.603,5.174-7.026
		c0.372-6.429,0.621-12.857-3.627-18.384c115.985,0,231.971,0.02,347.956-0.095c3.424-0.003,4.097,0.671,4.095,4.095
		c-0.109,157.646-0.095,315.293-0.095,472.941c-1.473,1.354-3.311,1.385-5.143,1.389c-15.074,0.034-30.149,0.04-45.224-0.006
		c-1.652-0.006-3.334,0.006-4.764-1.059c-1.511-1.817-1.437-4.032-1.437-6.181c-0.003-27.798-0.145-55.596,0.044-83.382
		c1.065-22.104-16.402-42.341-38.265-43.951c-3.835-1.361-8.378,1.134-11.852-2.183c-0.974-1.843-0.931-3.854-0.93-5.839
		c0.023-27.712-0.133-55.422,0.057-83.122c2.521-20.909-12.511-41.487-35.056-45.255c-1.458-0.244-2.997-0.33-4.026-1.662
		c-0.305-0.518-0.511-1.063-0.642-1.647c-0.659-11.97-0.223-23.944-0.279-35.914c-0.086-18.295-0.016-36.59-0.028-54.884
		c-0.002-2.326,0.153-4.687-0.604-6.929c-1.001-2.962-2.972-4.882-6.269-4.651c-3.273,0.23-4.358,2.651-4.783,5.48
		c-0.321,2.146-0.223,4.315-0.223,6.477c-0.006,27.775,0.013,55.55-0.026,83.325c-0.004,2.786,0.462,5.693-1.272,8.235
		c-2.19,1.632-4.75,1.065-7.188,1.185c-7.737,0.379-15.525-0.783-23.225,0.764c-10.253,0.853-20.523,0.326-30.788,0.34
		c-1.499,0.002-2.976-0.262-4.229-1.212c-1.367-1.679-1.375-3.711-1.377-5.7c-0.008-8.818-0.186-17.637,0.079-26.453
		c-0.156-9.962-0.195-19.925,0.008-29.885c-0.177-6.783-0.038-13.569-0.075-20.355c-0.063-11.372,0.82-10.21-10.571-10.358
		c-3.091-0.04-6.331,0.622-9.165-1.335c-1.073-1.401-1.231-3.065-1.23-4.722c0.009-11.918-0.333-23.838,0.164-35.743
		c0.302-2.864,2.557-4.06,4.636-5.466c7.684-5.199,10.908-13.401,8.092-22.116c-3.909-12.097-10.119-23.144-16.517-34.071
		c-1.437-2.453-2.544-2.042-3.822,0.138c-6.153,10.495-11.988,21.168-16.05,32.661c-3.314,9.376-0.606,17.215,7.435,23.236
		c1.608,1.204,3.297,2.305,3.75,4.479c0.493,12.333,0.101,24.662,0.223,36.987c0.039,3.974-1.856,5.797-5.721,5.92
		c-2.666,0.085-5.331,0.038-7.996,0.091c-5.607,0.114-6.012,0.475-6.09,5.941c-0.116,8.162,0.123,16.327-0.112,24.491
		c0.176,9.997,0.188,19.992,0.005,29.987c0.25,8.816,0.088,17.632,0.082,26.447c-0.001,1.989,0.004,4.019-1.288,5.737
		c-1.525,1.231-3.365,1.346-5.191,1.354c-18.082,0.084-36.164,0.084-54.246,0.003c-1.496-0.007-2.986-0.134-4.4-0.707
		c-0.951-0.417-1.658-1.093-2.146-2.002c-1.187-2.869-0.848-5.901-0.849-8.879c-0.023-45.295-0.014-90.59-0.021-135.885
		c0-2.495,0.157-5.007-0.322-7.475c-0.478-2.46-1.599-4.36-4.423-4.656c-2.849-0.299-4.821,0.897-6.048,3.417
		c-1.296,2.661-1.017,5.535-1.018,8.348c-0.021,45.628-0.009,91.256-0.023,136.884c-0.001,2.825,0.203,5.666-0.372,8.463
		c-0.555,2.266-2.291,3.005-4.345,3.255c-2.596,0.316-5.072,1.149-7.603,1.708c-3.195,0.229-6.042,1.329-8.461,3.468
		c-1.395,1.217-2.891,2.292-4.517,3.178c-2.412,1.301-4.254,3.173-5.576,5.568c-0.888,1.596-1.93,3.082-3.148,4.443
		c-2.09,2.281-3.116,5.083-3.916,8.002c-0.919,2.502-1.388,5.111-1.898,7.718c-0.594,2.811-0.309,5.649-0.312,8.467
		c-0.025,27.446-0.011,54.894-0.017,82.339c-0.002,9.891-0.011,9.891-9.87,10.213c-0.666,0.021-1.328,0.073-1.969,0.214
		c-19.833,1.841-36.029,16.959-38.906,37.913c-0.563,11.825-0.173,23.645-0.225,35.458c-0.077,17.647,0.001,35.295-0.043,52.942
		c-0.006,2.454,0.462,5.032-1.152,7.255c-1.559,1.235-3.425,1.144-5.241,1.148c-14.777,0.045-29.555,0.032-44.333,0.009
		C6.665,479.332,4.63,479.431,3,477.94z"/>
	<path fill-rule="evenodd" clip-rule="evenodd" fill="#BFE8FB" d="M482.939,511c-150.647,0-301.295,0-451.943,0
		c-11.474-0.977-18.893-7.445-24.665-16.203c-2.59-3.93-3.045-8.229-2.813-12.701c-0.597-3.446,1.499-3.751,4.407-3.733
		c15.251,0.089,30.504,0.051,45.755,0.029c1.805-0.003,3.658,0.3,5.394-0.486c2.294-0.595,4.639-0.368,6.962-0.368
		c127.25-0.013,254.5-0.013,381.75-0.001c2.324,0,4.667-0.203,6.964,0.334c1.728,0.782,3.58,0.523,5.389,0.525
		c15.261,0.015,30.521,0.043,45.781-0.023c2.788-0.013,5.108,0.079,4.499,3.624C510.42,496.955,500.002,507.954,482.939,511z"/>
	<path fill-rule="evenodd" clip-rule="evenodd" fill="#BFE8FB" d="M3.986,483.993c-0.329-0.01-0.658-0.027-0.986-0.054
		c0-2,0-3.999,0-5.999c18.319-0.01,36.638-0.021,54.958-0.03c0.312-0.282,0.639-0.315,0.983-0.061
		c0.186,0.213,0.262,0.436,0.229,0.669c-0.035,0.238-0.08,0.357-0.134,0.357c-16.576,0.021-33.154,0.161-49.729-0.021
		C5.334,478.811,3.273,479.691,3.986,483.993z"/>
	<path fill-rule="evenodd" clip-rule="evenodd" fill="#F04F5B" d="M58.849,381.033c3.042-20.191,17.712-34.534,38.138-37.285
		c7.961,0.014,15.846-1.248,23.822-1.242c82.19,0.063,164.381,0.041,246.571,0.034c2.82,0,5.664,0.223,8.409-0.702
		c8.298-0.892,16.62-0.37,24.934-0.365c1.516,0.001,2.984,0.325,4.143,1.441c4.053,0.707,8.241-0.583,12.246,0.834
		c-0.471,0.756-1.201,1.258-2.029,1.287c-10.707,0.384-21.426,1.047-30.051-0.301c11.78,4.426,13.922,5.733,21.122,14.039
		c7.47,8.614,9.858,19.058,10.163,30.055c0.316,11.451-0.097,22.913,0.19,34.367c0.125,1.141-0.232,2.157-0.813,3.111
		c-3.225,4.734-7.109,8.768-12.136,11.661c-11.189,6.44-24.226,4.905-33.73-3.857c-6.856-6.322-11.332-14.341-16.175-22.103
		c-3.27-5.236-6.544-10.464-10.864-14.914c-12.198-12.565-29.966-11.702-41.03,1.919c-4.848,5.967-8.898,12.473-12.858,19.03
		c-3.379,5.598-7.332,10.686-11.996,15.279c-11.797,11.617-27.638,11.636-39.679,0.222c-7.013-6.647-11.657-14.913-16.803-22.88
		c-4.237-6.561-8.306-13.284-15.017-17.808c-9.626-6.489-20.943-6.189-30.262,0.793c-6.297,4.717-10.316,11.238-14.441,17.699
		c-4.476,7.01-8.391,14.407-14.28,20.436c-14.085,14.415-33.357,13.407-45.946-2.423c-4.994-6.278-8.915-13.266-13.184-20.021
		c-2.587-4.095-5.438-7.962-8.706-11.551c-4.412-4.846-9.715-8.022-16.137-9.371c-1.412-0.297-3.063-0.24-3.882-1.849
		C58.594,384.72,58.203,382.85,58.849,381.033z"/>
	<path fill-rule="evenodd" clip-rule="evenodd" fill="#FCE65C" d="M404.865,342.914c-9.657,0.079-19.314,0.158-28.972,0.237
		c-1.797,0.546-3.64,0.276-5.46,0.276c-84.911,0.016-169.823,0.014-254.735,0.013c-6.189,0-6.195-0.003-6.196-6.155
		c-0.002-26.806-0.008-53.61,0.017-80.417c0.001-1.638-0.368-3.334,0.423-4.899c2.218-1.758,4.467-0.728,6.587,0.133
		c5.245,2.131,9.15,5.855,12.401,10.457c4.604,6.519,8.253,13.668,13.404,19.826c9.233,11.038,23.051,10.78,31.968-0.588
		c5.25-6.693,9.116-14.306,14.275-21.052c9.688-12.669,23.848-13.538,35.209-2.272c6.005,5.954,9.417,13.666,14.274,20.393
		c3.678,5.096,7.864,9.472,14.159,11.221c3.118,0.823,6.232,0.883,9.343-0.031c8.301-3.22,12.983-10.129,17.506-17.182
		c3.321-5.183,6.308-10.594,10.721-15.001c9.85-9.836,23.021-9.725,32.654,0.401c3.105,3.264,5.643,6.988,7.979,10.848
		c3.02,4.989,6.151,9.905,9.976,14.339c7.675,8.896,19.828,9.493,28.322,1.493c3.932-3.702,6.895-8.085,9.692-12.642
		c3.571-5.815,6.882-11.921,12.335-16.224c3.965-3.128,8.098-6.649,13.874-4.166c0.098,11.928,0.256,23.855,0.279,35.783
		C404.938,306.108,404.882,324.511,404.865,342.914z"/>
	<path fill-rule="evenodd" clip-rule="evenodd" fill="#EA3645" d="M251.522,290.959c-6.093-1.231-9.853-5.516-13.444-10.115
		c-5.751-7.368-9.46-16.1-16.288-22.815c-9.23-9.08-23.791-8.058-31.872,2.725c-5.319,7.097-9.321,15.053-14.917,21.979
		c-8.338,10.323-22.521,13.583-33.459,0.372c-4.864-5.876-8.388-12.509-12.659-18.702c-4.136-5.997-9.057-10.784-16.418-12.444
		c-1.873-0.456-3.321-1.181-2.989-3.575c0.289-2.077-0.345-4.227,0.389-6.289c0.249-2.619,0.484-5.242,2.157-7.448
		c1.234-2.536,2.384-5.114,3.774-7.572c1.062-1.485,2.123-2.971,3.185-4.456c1.795-1.97,3.725-3.806,5.619-5.678
		c1.483-1.079,2.966-2.158,4.448-3.237c2.592-1.189,5.058-2.647,7.751-3.621c4.163-1.066,8.326-2.132,12.488-3.198
		c0.898-0.958,2.077-1.161,3.303-1.237c4.143,0.169,8.396-0.811,12.372,1.159c21.289-0.036,42.578-0.072,63.867-0.108
		c1.889-1.317,4.063-1.32,6.226-1.324c14.609-0.027,29.216-0.027,43.826,0c2.162,0.004,4.336,0.005,6.225,1.325
		c11.661,0.054,23.323,0.108,34.983,0.162c3.617-0.779,7.281-0.35,10.917-0.337c9.289,0.035,18.562-0.094,27.823-0.915
		c2.124-0.188,4.359-0.236,6.197,1.277c25.955,1.834,41.984,25.583,39.597,45.036c-8.247-0.304-13.719,4.431-18.149,10.503
		c-4.107,5.631-7.571,11.726-11.59,17.425c-2.963,4.204-6.378,7.925-11.378,10.091c-11.484,4.974-20.413-0.203-27.413-9.757
		c-4.159-5.677-7.445-11.919-11.644-17.607c-10.948-14.832-27.362-14.584-37.705,0.832c-3.927,5.854-7.806,11.74-11.856,17.507
		c-3.171,4.513-7.217,8.061-12.473,10.043C258.783,291.735,255.152,291.733,251.522,290.959z"/>
	<path fill-rule="evenodd" clip-rule="evenodd" fill="#FCE65C" d="M414.807,425.993c0.347-0.675,0.693-1.351,1.039-2.026
		c2.21-7.099,7.148-12.637,10.897-18.843c4.551-7.535,10.323-14.004,18.827-17.229c3.115-1.182,6.352-3.324,9.886-0.912
		c0.104,9.466,0.282,18.933,0.298,28.399c0.035,20.78-0.012,41.562-0.023,62.342c-0.303,0.042-0.578,0.155-0.823,0.338
		c-13.371,0.594-26.742,0.6-40.114-0.004c-1.664-1.952-1.42-4.343-1.43-6.629c-0.053-12.57-0.011-25.14-0.033-37.71
		C413.325,431.034,413.698,428.451,414.807,425.993z"/>
	<path fill-rule="evenodd" clip-rule="evenodd" fill="#FFDB64" d="M151.893,206.837c-0.869,0.017-1.738,0.033-2.606,0.049
		c-0.082-2.658-0.235-5.315-0.236-7.972c-0.014-47.45-0.016-94.9-0.003-142.35c0.001-6.59,2.729-9.952,7.881-9.827
		c4.111,0.1,6.52,2.239,7.066,6.28c0.244,1.803,0.14,3.656,0.14,5.486c0.006,49.115,0.006,98.23,0.007,147.345
		C160.161,207.444,155.904,205.625,151.893,206.837z"/>
	<path fill-rule="evenodd" clip-rule="evenodd" fill="#EA3645" d="M455.456,386.982c-9.862,0.308-17.528,4.952-23.177,12.661
		c-5.778,7.887-10.979,16.197-16.433,24.322c-1.496-1.534-0.865-3.466-0.876-5.225c-0.059-10.304,0.151-20.613-0.07-30.913
		c-0.349-16.194-7.212-28.986-20.728-38.068c-3.705-2.489-8.027-3.638-12.082-6.011c11.675,0,23.349,0,35.022,0
		C439.582,346.666,456.499,365.739,455.456,386.982z"/>
	<path fill-rule="evenodd" clip-rule="evenodd" fill="#95DAF8" d="M229.059,144.927c-0.027-9.324,0.042-18.649-0.136-27.97
		c-0.058-3.032,0.905-4.179,3.987-4.015c3.985,0.211,8.001-0.139,11.982,0.107c3.381,0.208,4.224-1.167,4.191-4.342
		c-0.129-12.819-0.029-25.641-0.013-38.461c1.268-0.31,1.552,0.658,1.945,1.488c1.062,10.739,0.268,21.51,0.47,32.266
		c0.134,7.162,0.053,7.178,7.024,7.46c2.005,0.082,3.987,0.154,5.647,1.493c5.483,0.013,10.976,0.233,16.445-0.033
		c3.616-0.175,4.501,1.22,4.422,4.596c-0.217,9.133-0.119,18.273-0.146,27.411c-1.875,1.788-4.261,1.632-6.559,1.639
		c-14.234,0.044-28.468,0.044-42.702,0C233.319,146.56,230.933,146.715,229.059,144.927z"/>
	<path fill-rule="evenodd" clip-rule="evenodd" fill="#95DAF8" d="M285.104,206.699c-18.758,0.461-37.515,0.461-56.274,0
		c0.075-10.556,0.151-21.111,0.228-31.666c1.875-1.788,4.26-1.632,6.559-1.639c14.234-0.044,28.467-0.044,42.702,0
		c2.299,0.007,4.684-0.148,6.56,1.639C284.954,185.588,285.029,196.144,285.104,206.699z"/>
	<path fill-rule="evenodd" clip-rule="evenodd" fill="#FFDB64" d="M249.949,70.854c-0.293-0.203-0.587-0.406-0.879-0.608
		c-12.74-7.735-15.669-16.422-10.041-30.182c4.827-11.801,10.888-22.957,17.969-34.454c7.867,13.267,15.387,25.917,19.791,40.051
		c2.812,9.028-1.179,18.123-9.306,23.052c-1.127,0.684-2.307,1.281-3.462,1.919C259.341,74.124,255.165,74.19,249.949,70.854z"/>
	<path fill-rule="evenodd" clip-rule="evenodd" fill="#BFE8FB" d="M284.879,175.032c-18.607,0-37.215,0-55.821,0
		c0-10.034,0-20.069,0-30.104c18.607,0,37.214,0,55.821,0C284.878,154.962,284.878,164.998,284.879,175.032z"/>
	<path fill-rule="evenodd" clip-rule="evenodd" fill="#FFDB65" d="M349.771,205.736c0.008-31.131,0.015-62.263,0.026-93.394
		c0.001-1.664-0.043-3.336,0.094-4.99c0.294-3.563,2.169-5.917,5.729-6.585c3.683-0.691,6.481,0.741,8.324,4.017
		c0.848,1.507,0.963,3.14,0.961,4.828c-0.047,32.129-0.075,64.258-0.108,96.388C359.775,206.631,354.76,207.024,349.771,205.736z"/>
	<path fill-rule="evenodd" clip-rule="evenodd" fill="#7485B2" d="M249.949,70.854c4.708,1.03,9.403,1.284,14.072-0.22
		c0.045,14.106,0.09,28.213,0.136,42.32c-3.471,0.015-6.952-0.133-10.41,0.094c-3.102,0.204-3.957-1.045-3.922-4.01
		C249.972,96.311,249.925,83.582,249.949,70.854z"/>
	<path fill-rule="evenodd" clip-rule="evenodd" fill="#F7B085" d="M109.865,242.095c1.085,3.23-2.155,7.599,2.599,9.863
		c-2.608,0.242-2.489,2.125-2.488,4.022c0.015,27.655,0.088,55.308-0.07,82.961c-0.024,4.293,2.403,3.856,5.133,3.855
		c42.314-0.018,84.627-0.032,126.942-0.007c43.146,0.026,86.29,0.095,129.436,0.157c1.494,0.002,2.987,0.132,4.479,0.203
		c-1.487,1.098-3.213,0.69-4.836,0.691c-90.533,0.057-181.065,0.089-271.598,0.113c-0.826,0-1.652-0.135-2.476-0.207
		c2.835-1.424,5.872-0.665,8.801-0.678c2.623-0.012,3.444-0.991,3.435-3.531c-0.099-29.246-0.129-58.491-0.152-87.737
		C109.066,248.551,108.144,245.209,109.865,242.095z"/>
	<path fill-rule="evenodd" clip-rule="evenodd" fill="#FEF2A8" d="M400.01,77.766c0.236,1.669-1.287,3.411-2.636,4.976
		c-2.479,2.877-5.172,5.604-8.014,8.125c-3.49,3.095-8.189,2.871-11.173-0.219c-3.128-3.24-2.961-7.199,0.625-10.959
		c2.854-2.995,5.787-5.921,8.804-8.752c2.487-2.335,5.382-2.228,8.286-0.794C398.726,71.537,399.814,74,400.01,77.766z"/>
	<path fill-rule="evenodd" clip-rule="evenodd" fill="#FEF2A8" d="M329.697,93.97c-1.919,0.338-3.594-0.976-5.029-2.24
		c-3.101-2.728-6.149-5.564-8.857-8.671c-2.921-3.35-2.58-7.989,0.334-10.723c3.446-3.234,7.212-3.176,10.964,0.365
		c3.009,2.839,5.948,5.764,8.755,8.801c2.076,2.246,2.55,4.807,1.075,7.754C335.46,92.212,333.364,93.922,329.697,93.97z"/>
	<path fill-rule="evenodd" clip-rule="evenodd" fill="#FEF2A8" d="M121.872,15.875c0.97-0.171,2.563,0.841,3.903,2.047
		c3.19,2.874,6.437,5.729,9.284,8.926c3.027,3.399,2.54,8.312-0.647,11.142c-3.218,2.859-7.012,2.666-10.606-0.734
		c-3.006-2.842-5.919-5.788-8.767-8.789c-2.327-2.454-2.383-5.282-0.974-8.259C115.428,17.331,117.847,16.241,121.872,15.875z"/>
	<path fill-rule="evenodd" clip-rule="evenodd" fill="#FEF2A8" d="M137.968,85.552c-0.111,2.631-1.269,4.711-2.797,6.442
		c-2.42,2.741-5,5.369-7.731,7.797c-3.546,3.152-8.198,2.98-11.224-0.133c-3.146-3.237-2.981-7.213,0.638-11.015
		c2.868-3.013,5.832-5.94,8.865-8.787c2.54-2.383,5.489-2.1,8.345-0.65C136.665,80.526,137.775,82.878,137.968,85.552z"/>
	<path fill-rule="evenodd" clip-rule="evenodd" fill="#FEF2A8" d="M393.443,154.994c-2.569,0.164-4.521-0.648-6.136-2.234
		c-2.729-2.68-5.505-5.321-8.103-8.125c-3.006-3.243-3.188-6.937-0.633-10.447c2.354-3.238,7.142-3.8,10.633-0.968
		c3.596,2.917,6.944,6.237,9.914,9.788c1.784,2.134,2.584,5.026,0.829,7.895C398.384,153.461,396.513,155.426,393.443,154.994z"/>
	<path fill-rule="evenodd" clip-rule="evenodd" fill="#FEF2A8" d="M199.022,23.007c0.161,2.118-0.361,3.893-1.961,5.405
		c-2.768,2.618-5.338,5.447-8.116,8.054c-3.278,3.075-7.948,3.396-10.815,0.917c-2.679-2.316-3.296-7.835-0.698-10.944
		c2.857-3.419,6.032-6.645,9.453-9.494c2.129-1.774,4.925-2.693,7.852-1.026C197.538,17.516,199.453,19.549,199.022,23.007z"/>
	<path fill-rule="evenodd" clip-rule="evenodd" fill="#FEF2A8" d="M338.004,139.973c0.249,2.271-0.533,4.115-2.248,5.722
		c-2.658,2.492-5.115,5.199-7.772,7.694c-3.32,3.119-7.884,3.477-10.799,1.001c-2.873-2.439-3.337-8.052-0.522-11.326
		c2.8-3.257,5.838-6.379,9.144-9.11c2.144-1.771,4.927-2.743,7.852-1.107C336.456,134.414,338.423,136.434,338.004,139.973z"/>
	<path fill-rule="evenodd" clip-rule="evenodd" fill="#FEF2A8" d="M313.326,120.959c-1.994,0-3.996,0.119-5.979-0.025
		c-4.592-0.333-7.799-3.721-7.812-8.089c-0.012-4.141,3-6.734,7.909-6.98c2.64-0.132,5.262-0.549,7.9-0.733
		c6.505-0.454,11.518,3.11,11.575,8.164c0.057,4.961-3.659,7.647-10.603,7.664C315.32,120.961,314.323,120.959,313.326,120.959z"/>
	<path fill-rule="evenodd" clip-rule="evenodd" fill="#FEF2A8" d="M199.976,93.532c-0.156,6.047-6.155,9.771-10.926,6.722
		c-4.462-2.851-8.408-6.471-11.421-10.952c-2.625-3.903-1.693-7.307,1.705-10.069c3.296-2.68,6.741-2.437,9.823,0.482
		c3.015,2.854,5.86,5.888,8.861,8.758C199.601,89.987,200.216,91.737,199.976,93.532z"/>
	<path fill-rule="evenodd" clip-rule="evenodd" fill="#FEF2A8" d="M162.514,25.775c-4.386,4.165-11.261,2.557-12.479-2.973
		c-1.14-5.171-1.37-10.521-0.332-15.82c0.904-4.615,3.97-6.364,8.326-5.914c4.226,0.435,6.49,3.044,6.605,7.287
		c0.113,4.15-0.02,8.308,0.073,12.458C164.755,23.003,163.953,24.675,162.514,25.775z"/>
	<path fill-rule="evenodd" clip-rule="evenodd" fill="#FEF2A8" d="M208.916,50.944c4.145,1.198,6.059,4.126,5.378,8.211
		c-0.712,4.274-3.709,6.573-8.046,6.763c-3.486,0.153-6.985-0.002-10.478,0.054c-4.625,0.075-7.803-1.998-8.63-6.56
		c-0.813-4.486,1.717-7.159,5.855-8.481C198.303,50.258,203.609,50.216,208.916,50.944z"/>
	<path fill-rule="evenodd" clip-rule="evenodd" fill="#FEF2A8" d="M112.44,66.96c-1.986,0.004-3.982,0.13-5.957-0.021
		c-4.64-0.355-7.695-3.773-7.482-8.197c0.183-3.798,3.359-6.949,7.647-6.753c4.439,0.204,8.853-1.275,13.25-0.148
		c4.764,1.219,6.75,4.006,6.084,8.654c-0.613,4.272-3.613,6.063-7.586,6.429C116.427,67.105,114.427,66.956,112.44,66.96z"/>
	<path fill-rule="evenodd" clip-rule="evenodd" fill="#FEF2A8" d="M364.052,68.741c0,1.995,0.082,3.994-0.017,5.984
		c-0.238,4.815-2.492,7.135-6.994,7.334c-4.01,0.177-7.611-2.51-7.921-6.593c-0.352-4.626-0.366-9.324,0.008-13.947
		c0.325-4.022,4.117-6.904,8.103-6.463c4.146,0.458,6.555,2.928,6.769,7.203c0.108,2.156,0.019,4.321,0.019,6.482
		C364.029,68.741,364.04,68.741,364.052,68.741z"/>
	<path fill-rule="evenodd" clip-rule="evenodd" fill="#CECAB8" d="M58.849,381.033c0.062,1.984,0.124,3.969,0.186,5.952
		c1.711,1.933,1.538,4.326,1.541,6.636c0.035,25.94,0.033,51.883,0.004,77.824c-0.002,1.987,0.072,4.007-0.892,5.858
		c-0.219,0.249-0.442,0.496-0.666,0.743c-0.354-0.046-0.709-0.091-1.064-0.137c0-30.392-0.014-60.782,0.03-91.174
		C57.991,384.827,57.254,382.731,58.849,381.033z"/>
	<path fill-rule="evenodd" clip-rule="evenodd" fill="#F7B085" d="M349.771,205.736c5.009,0.087,10.018,0.175,15.026,0.263
		c0.146,0.278,0.222,0.573,0.228,0.887c-14.98-0.008-29.961-0.017-44.939-0.025c6.354-1.732,12.835-0.46,19.246-0.818
		C342.807,205.849,346.292,205.832,349.771,205.736z"/>
	<path fill-rule="evenodd" clip-rule="evenodd" fill="#FEF2A8" d="M208.916,50.944c-5.307-0.004-10.614-0.008-15.921-0.012
		C198.303,49.428,203.61,49.358,208.916,50.944z"/>
	<path fill-rule="evenodd" clip-rule="evenodd" fill="#FEF2A8" d="M408.961,104.913c-5.027-1.551-10.056-1.494-15.082,0
		c-0.001,0-0.002,0-0.003,0c-4.944,0.531-6.144,3.908-5.944,8.112c0.21,4.426,3.247,6.437,7.146,6.823
		c3.931,0.39,7.933,0.178,11.899,0.072c4.39-0.117,7.263-2.448,7.857-6.762C415.432,108.832,413.566,105.775,408.961,104.913z"/>
	<path fill-rule="evenodd" clip-rule="evenodd" fill="#FFDB64" d="M151.893,206.837c3.968-1.759,8.205-0.169,12.249-0.988
		c0.275,0.318,0.549,0.638,0.822,0.958C160.605,206.816,156.249,206.827,151.893,206.837z"/>
	<path fill-rule="evenodd" clip-rule="evenodd" fill="#EA3645" d="M136.799,210.083c-2.38,1.647-4.803,3.202-7.753,3.622
		C131.223,211.623,133.619,210.014,136.799,210.083z"/>
	<path fill-rule="evenodd" clip-rule="evenodd" fill="#EA3645" d="M124.6,216.941c-1.25,2.512-3.183,4.349-5.621,5.68
		C120.096,219.976,121.997,218.111,124.6,216.941z"/>
	<path fill-rule="evenodd" clip-rule="evenodd" fill="#EA3645" d="M115.796,227.075c-0.594,2.857-1.85,5.385-3.777,7.575
		C112.291,231.629,113.567,229.114,115.796,227.075z"/>
	<path fill-rule="evenodd" clip-rule="evenodd" fill="#FFF3A8" d="M414.962,477.854c-16.996,0.028-33.993,0.083-50.989,0.08
		c-101.652-0.012-203.305-0.037-304.958-0.06c0.006-30.296,0.013-60.593,0.019-90.89c10.465,0.13,17.911,5.735,23.656,13.734
		c6.206,8.64,11.554,17.903,17.893,26.438c13.612,18.328,34.421,18.359,48.043,0.065c6.349-8.525,11.601-17.862,17.889-26.438
		c13.676-18.652,34.43-18.808,48.339-0.289c6.183,8.23,11.333,17.227,17.263,25.658c3.956,5.625,8.816,10.441,15.536,12.844
		c10.4,3.717,19.65,1.571,27.769-5.695c7.188-6.433,11.659-14.891,16.75-22.88c3.847-6.038,7.688-12.072,13.236-16.784
		c11.068-9.402,26.136-8.979,36.693,1.043c6.986,6.633,11.471,15.058,16.57,23.035c2.963,4.633,5.914,9.269,9.744,13.244
		c12.771,13.249,29.368,13.158,42.066-0.2c1.478-1.556,2.887-3.179,4.326-4.77C414.858,443.28,414.91,460.567,414.962,477.854z"/>
	<path fill-rule="evenodd" clip-rule="evenodd" fill="#F7BAD4" d="M124.669,412.228c-4.563,0.084-7.573-2.794-7.646-7.313
		c-0.071-4.339,3.106-7.781,7.279-7.886c4.187-0.105,7.526,3.177,7.65,7.518C132.081,409.07,129.165,412.145,124.669,412.228z"/>
	<path fill-rule="evenodd" clip-rule="evenodd" fill="#F7BAD4" d="M396.912,404.668c0.061,4.518-2.89,7.532-7.402,7.563
		c-4.536,0.029-7.516-2.914-7.524-7.438c-0.008-4.332,3.232-7.731,7.402-7.767C393.572,396.991,396.854,400.324,396.912,404.668z"/>
	<path fill-rule="evenodd" clip-rule="evenodd" fill="#F7BAD4" d="M256.817,397.035c4.352-0.086,7.274,2.897,7.373,7.522
		c0.102,4.748-2.533,7.608-7.073,7.679c-4.621,0.071-7.346-2.655-7.37-7.377C249.722,400.184,252.489,397.12,256.817,397.035z"/>
	<path fill-rule="evenodd" clip-rule="evenodd" fill="#F7B085" d="M251.522,290.959c3.628,0,7.256,0,10.888-0.001
		C258.783,292.795,255.153,292.807,251.522,290.959z"/>
	<path fill-rule="evenodd" clip-rule="evenodd" fill="#F7BAD4" d="M264.14,260.073c-0.074,5.3-2.622,8.078-7.333,7.996
		c-4.374-0.076-8.11-3.814-7.897-7.902c0.218-4.186,3.971-7.492,8.407-7.406C261.771,252.847,264.204,255.457,264.14,260.073z"/>
	<path fill-rule="evenodd" clip-rule="evenodd" fill="#F7BAD4" d="M158.104,252.857c4.456,0.012,7.896,3.27,7.929,7.509
		c0.034,4.417-3.221,7.607-7.86,7.703c-4.077,0.085-7.23-3.18-7.288-7.542C150.814,255.243,153.072,252.843,158.104,252.857z"/>
	<path fill-rule="evenodd" clip-rule="evenodd" fill="#F7BAD4" d="M355.376,252.857c4.09-0.023,7.532,3.273,7.669,7.348
		c0.155,4.629-3.351,7.968-8.257,7.862c-3.818-0.082-6.881-3.43-6.892-7.529C347.883,255.188,350.122,252.888,355.376,252.857z"/>
</g>
</svg>
